<svg width="50" height="50" viewBox="0 0 50 50" fill="none" xmlns="http://www.w3.org/2000/svg">
<g clip-path="url(#clip0_58_795)">
<path fill-rule="evenodd" clip-rule="evenodd" d="M19.3016 8.8846C19.7079 8.47827 20.259 8.25 20.8337 8.25H25.0003C25.575 8.25 26.1261 8.47827 26.5324 8.8846C26.9387 9.29093 27.167 9.84203 27.167 10.4167C27.167 10.9913 26.9387 11.5424 26.5324 11.9487C26.1261 12.3551 25.575 12.5833 25.0003 12.5833H20.8337C20.259 12.5833 19.7079 12.3551 19.3016 11.9487C18.8953 11.5424 18.667 10.9913 18.667 10.4167C18.667 9.84203 18.8953 9.29093 19.3016 8.8846ZM20.8337 4.25C19.1982 4.25 17.6296 4.8997 16.4732 6.05617C15.8025 6.72688 15.3022 7.53617 15.0003 8.41675H12.4997C10.8642 8.41675 9.29566 9.06645 8.13918 10.2229C6.98271 11.3794 6.33301 12.9479 6.33301 14.5834V39.5834C6.33301 41.2189 6.98271 42.7874 8.13918 43.9439C9.29566 45.1004 10.8642 45.7501 12.4997 45.7501H24.3684C25.473 45.7501 26.3684 44.8546 26.3684 43.7501C26.3684 42.6455 25.473 41.7501 24.3684 41.7501H12.4997C11.925 41.7501 11.3739 41.5218 10.9676 41.1155C10.5613 40.7092 10.333 40.1581 10.333 39.5834V14.5834C10.333 14.0088 10.5613 13.4577 10.9676 13.0513C11.3739 12.645 11.925 12.4167 12.4997 12.4167H15.0003C15.3023 13.2973 15.8025 14.1065 16.4732 14.7772C17.6296 15.9336 19.1982 16.5833 20.8337 16.5833H25.0003C26.6358 16.5833 28.2043 15.9336 29.3608 14.7772C30.0315 14.1065 30.5317 13.2973 30.8336 12.4167H33.3337C33.9083 12.4167 34.4594 12.645 34.8657 13.0513C35.2721 13.4577 35.5003 14.0088 35.5003 14.5834V25.0001C35.5003 26.1046 36.3958 27.0001 37.5003 27.0001C38.6049 27.0001 39.5003 26.1046 39.5003 25.0001V14.5834C39.5003 12.9479 38.8506 11.3794 37.6941 10.2229C36.5377 9.06645 34.9692 8.41675 33.3337 8.41675H30.8337C30.5318 7.53617 30.0315 6.72688 29.3608 6.05617C28.2043 4.8997 26.6358 4.25 25.0003 4.25H20.8337ZM14.667 22.9167C14.667 21.8122 15.5624 20.9167 16.667 20.9167H25.0003C26.1049 20.9167 27.0003 21.8122 27.0003 22.9167C27.0003 24.0213 26.1049 24.9167 25.0003 24.9167H16.667C15.5624 24.9167 14.667 24.0213 14.667 22.9167ZM16.667 29.25C15.5624 29.25 14.667 30.1454 14.667 31.25C14.667 32.3546 15.5624 33.25 16.667 33.25H22.917C24.0216 33.25 24.917 32.3546 24.917 31.25C24.917 30.1454 24.0216 29.25 22.917 29.25H16.667ZM29.2783 31.3613C30.6301 30.0094 32.4636 29.25 34.3753 29.25C36.2871 29.25 38.1206 30.0094 39.4724 31.3613C40.8242 32.7131 41.5837 34.5466 41.5837 36.4583C41.5837 37.6873 41.2698 38.884 40.6865 39.9411L45.1645 44.4191C45.9456 45.2002 45.9456 46.4665 45.1645 47.2475C44.3835 48.0286 43.1172 48.0286 42.3361 47.2475L37.8581 42.7695C36.8009 43.3528 35.6043 43.6667 34.3753 43.6667C32.4636 43.6667 30.6301 42.9072 29.2783 41.5554C27.9264 40.2036 27.167 38.3701 27.167 36.4583C27.167 34.5466 27.9264 32.7131 29.2783 31.3613ZM34.3753 33.25C33.5244 33.25 32.7084 33.588 32.1067 34.1897C31.505 34.7914 31.167 35.6074 31.167 36.4583C31.167 37.3092 31.505 38.1253 32.1067 38.727C32.7084 39.3286 33.5244 39.6667 34.3753 39.6667C35.2262 39.6667 36.0423 39.3286 36.644 38.727C37.2456 38.1253 37.5837 37.3092 37.5837 36.4583C37.5837 35.6074 37.2456 34.7914 36.644 34.1897C36.0423 33.588 35.2262 33.25 34.3753 33.25Z" fill="url(#paint0_linear_58_795)"/>
</g>
<defs>
<linearGradient id="paint0_linear_58_795" x1="10.5" y1="8" x2="41.5" y2="48" gradientUnits="userSpaceOnUse">
<stop stop-color="#F1B2A8"/>
<stop offset="0.475" stop-color="#EC57A8"/>
<stop offset="1" stop-color="#5B5AF7"/>
</linearGradient>
<clipPath id="clip0_58_795">
<rect width="50" height="50" fill="white"/>
</clipPath>
</defs>
</svg>
