<svg width="50" height="50" viewBox="0 0 50 50" fill="none" xmlns="http://www.w3.org/2000/svg">
<path fill-rule="evenodd" clip-rule="evenodd" d="M22.8574 8.27441C22.873 8.25878 22.8942 8.25 22.9163 8.25H41.6663C41.6884 8.25 41.7096 8.25878 41.7253 8.27441C41.7409 8.29003 41.7497 8.31123 41.7497 8.33333V24.3382L38.9139 21.5025C38.5388 21.1274 38.0301 20.9167 37.4997 20.9167H22.9163C22.8942 20.9167 22.873 20.9079 22.8574 20.8923C22.8418 20.8766 22.833 20.8554 22.833 20.8333V8.33333C22.833 8.31123 22.8418 8.29004 22.8574 8.27441ZM22.9163 4.25C21.8334 4.25 20.7948 4.68021 20.029 5.44598C19.2632 6.21175 18.833 7.25036 18.833 8.33333V20.8333C18.833 21.9163 19.2632 22.9549 20.029 23.7207C20.7948 24.4865 21.8334 24.9167 22.9163 24.9167H36.6712L42.3355 30.5809C42.9075 31.1529 43.7677 31.324 44.515 31.0144C45.2624 30.7049 45.7497 29.9756 45.7497 29.1667V8.33333C45.7497 7.25037 45.3195 6.21176 44.5537 5.44598C43.7879 4.68021 42.7493 4.25 41.6663 4.25H22.9163ZM8.27441 22.8577C8.29004 22.842 8.31123 22.8333 8.33333 22.8333H12.5C13.6046 22.8333 14.5 21.9378 14.5 20.8333C14.5 19.7287 13.6046 18.8333 12.5 18.8333H8.33333C7.25036 18.8333 6.21175 19.2635 5.44598 20.0292C4.68021 20.795 4.25 21.8336 4.25 22.9166V43.7499C4.25 44.5588 4.73728 45.2881 5.48463 45.5977C6.23198 45.9072 7.09222 45.7361 7.66421 45.1641L13.3284 39.4999H27.0833C28.1663 39.4999 29.2049 39.0697 29.9707 38.3039C30.7365 37.5382 31.1667 36.4995 31.1667 35.4166V31.2499C31.1667 30.1453 30.2712 29.2499 29.1667 29.2499C28.0621 29.2499 27.1667 30.1453 27.1667 31.2499V35.4166C27.1667 35.4387 27.1579 35.4599 27.1423 35.4755C27.1266 35.4911 27.1054 35.4999 27.0833 35.4999H12.5C11.9696 35.4999 11.4609 35.7106 11.0858 36.0857L8.25 38.9215V22.9166C8.25 22.8945 8.25878 22.8733 8.27441 22.8577Z" fill="url(#paint0_linear_58_810)"/>
<defs>
<linearGradient id="paint0_linear_58_810" x1="13" y1="10" x2="33.5" y2="43" gradientUnits="userSpaceOnUse">
<stop stop-color="#F1B2A8"/>
<stop offset="0.47" stop-color="#EC57A8"/>
<stop offset="1" stop-color="#5B5AF7"/>
</linearGradient>
</defs>
</svg>
