<svg width="545" height="345" viewBox="0 0 545 345" fill="none" xmlns="http://www.w3.org/2000/svg">
<rect width="545" height="345" rx="12" fill="#3E3E3E"/>
<path d="M34.504 37.192C33.7787 37.192 33.16 37.0427 32.648 36.744C32.136 36.4453 31.7147 36.0027 31.384 35.416L32.664 34.472C32.8773 34.856 33.1227 35.1387 33.4 35.32C33.6773 35.4907 33.976 35.576 34.296 35.576C34.7867 35.576 35.1547 35.4267 35.4 35.128C35.6453 34.8293 35.768 34.3067 35.768 33.56V26.536H37.624V33.72C37.624 34.3493 37.5173 34.9307 37.304 35.464C37.0907 35.9867 36.7547 36.408 36.296 36.728C35.8373 37.0373 35.24 37.192 34.504 37.192ZM43.2903 37.192C42.6396 37.192 42.0316 37.032 41.4663 36.712C40.9009 36.3813 40.4423 35.912 40.0903 35.304C39.7383 34.6853 39.5623 33.944 39.5623 33.08C39.5623 32.2053 39.7383 31.464 40.0903 30.856C40.4423 30.2373 40.9009 29.768 41.4663 29.448C42.0316 29.1173 42.6396 28.952 43.2903 28.952C43.9516 28.952 44.5649 29.1173 45.1303 29.448C45.6956 29.768 46.1543 30.2373 46.5063 30.856C46.8583 31.464 47.0343 32.2053 47.0343 33.08C47.0343 33.944 46.8583 34.6853 46.5063 35.304C46.1543 35.912 45.6956 36.3813 45.1303 36.712C44.5649 37.032 43.9516 37.192 43.2903 37.192ZM43.2903 35.688C43.8663 35.688 44.3196 35.448 44.6503 34.968C44.9809 34.488 45.1463 33.8587 45.1463 33.08C45.1463 32.2907 44.9809 31.656 44.6503 31.176C44.3196 30.696 43.8663 30.456 43.2903 30.456C42.7143 30.456 42.2609 30.696 41.9303 31.176C41.6103 31.656 41.4503 32.2907 41.4503 33.08C41.4503 33.8587 41.6103 34.488 41.9303 34.968C42.2609 35.448 42.7143 35.688 43.2903 35.688ZM51.1915 37.192C50.3488 37.192 49.7355 36.92 49.3515 36.376C48.9675 35.832 48.7755 35.064 48.7755 34.072V29.144H50.6155V33.832C50.6155 34.4827 50.7115 34.9413 50.9035 35.208C51.0955 35.4747 51.4048 35.608 51.8315 35.608C52.1728 35.608 52.4715 35.5227 52.7275 35.352C52.9942 35.1813 53.2768 34.904 53.5755 34.52V29.144H55.4155V37H53.9115L53.7675 35.848H53.7195C53.3782 36.2533 53.0048 36.5787 52.5995 36.824C52.1942 37.0693 51.7248 37.192 51.1915 37.192ZM57.7461 37V29.144H59.2661L59.3941 30.536H59.4581C59.7355 30.024 60.0715 29.6347 60.4661 29.368C60.8608 29.0907 61.2661 28.952 61.6821 28.952C62.0555 28.952 62.3541 29.0053 62.5781 29.112L62.2581 30.712C62.1195 30.6693 61.9915 30.6373 61.8741 30.616C61.7568 30.5947 61.6128 30.584 61.4421 30.584C61.1328 30.584 60.8075 30.7067 60.4661 30.952C60.1248 31.1867 59.8315 31.6027 59.5861 32.2V37H57.7461ZM63.7149 37V29.144H65.2349L65.3629 30.2H65.4269C65.7789 29.8587 66.1629 29.5653 66.5789 29.32C66.9949 29.0747 67.4695 28.952 68.0029 28.952C68.8455 28.952 69.4589 29.224 69.8429 29.768C70.2269 30.312 70.4189 31.08 70.4189 32.072V37H68.5789V32.312C68.5789 31.6613 68.4829 31.2027 68.2909 30.936C68.0989 30.6693 67.7842 30.536 67.3469 30.536C67.0055 30.536 66.7015 30.6213 66.4349 30.792C66.1789 30.952 65.8855 31.192 65.5549 31.512V37H63.7149ZM76.028 37.192C75.3027 37.192 74.6467 37.032 74.06 36.712C73.4733 36.3813 73.0093 35.912 72.668 35.304C72.3267 34.6853 72.156 33.944 72.156 33.08C72.156 32.2267 72.3267 31.4907 72.668 30.872C73.02 30.2533 73.4733 29.7787 74.028 29.448C74.5827 29.1173 75.164 28.952 75.772 28.952C76.4867 28.952 77.084 29.112 77.564 29.432C78.044 29.7413 78.4067 30.1787 78.652 30.744C78.8973 31.2987 79.02 31.944 79.02 32.68C79.02 33.064 78.9933 33.3627 78.94 33.576H73.948C74.0333 34.2693 74.284 34.808 74.7 35.192C75.116 35.576 75.6387 35.768 76.268 35.768C76.6093 35.768 76.924 35.72 77.212 35.624C77.5107 35.5173 77.804 35.3733 78.092 35.192L78.716 36.344C78.3427 36.5893 77.9267 36.792 77.468 36.952C77.0093 37.112 76.5293 37.192 76.028 37.192ZM73.932 32.328H77.42C77.42 31.72 77.2867 31.2453 77.02 30.904C76.7533 30.552 76.3533 30.376 75.82 30.376C75.3613 30.376 74.9507 30.5467 74.588 30.888C74.236 31.2187 74.0173 31.6987 73.932 32.328ZM81.3054 40.232C81.092 40.232 80.9054 40.216 80.7454 40.184C80.5854 40.152 80.4307 40.1147 80.2814 40.072L80.6174 38.632C80.692 38.6533 80.7774 38.6747 80.8734 38.696C80.98 38.728 81.0814 38.744 81.1774 38.744C81.5934 38.744 81.924 38.616 82.1694 38.36C82.4254 38.1147 82.6174 37.7947 82.7454 37.4L82.8894 36.904L79.8014 29.144H81.6734L83.0334 33C83.1507 33.3413 83.2627 33.704 83.3694 34.088C83.4867 34.4613 83.604 34.8347 83.7214 35.208H83.7854C83.8814 34.8453 83.9774 34.4773 84.0734 34.104C84.18 33.72 84.2814 33.352 84.3774 33L85.5614 29.144H87.3374L84.4894 37.352C84.1587 38.2373 83.7587 38.936 83.2894 39.448C82.82 39.9707 82.1587 40.232 81.3054 40.232ZM92.0624 37V26.536H94.1584L96.0144 31.656C96.1317 31.9867 96.2437 32.328 96.3504 32.68C96.4677 33.0213 96.5797 33.3627 96.6864 33.704H96.7504C96.8677 33.3627 96.9797 33.0213 97.0864 32.68C97.193 32.328 97.2997 31.9867 97.4064 31.656L99.2144 26.536H101.326V37H99.6144V32.216C99.6144 31.8853 99.625 31.528 99.6464 31.144C99.6784 30.7493 99.7104 30.3547 99.7424 29.96C99.785 29.5653 99.8224 29.208 99.8544 28.888H99.7904L98.9424 31.32L97.2304 36.024H96.1264L94.3984 31.32L93.5664 28.888H93.5024C93.5344 29.208 93.5664 29.5653 93.5984 29.96C93.641 30.3547 93.673 30.7493 93.6944 31.144C93.7264 31.528 93.7424 31.8853 93.7424 32.216V37H92.0624ZM105.728 37.192C105.046 37.192 104.486 36.9787 104.048 36.552C103.622 36.1253 103.408 35.5707 103.408 34.888C103.408 34.0453 103.776 33.3947 104.512 32.936C105.248 32.4667 106.422 32.1467 108.032 31.976C108.022 31.56 107.91 31.2027 107.696 30.904C107.494 30.5947 107.126 30.44 106.592 30.44C106.208 30.44 105.83 30.5147 105.456 30.664C105.094 30.8133 104.736 30.9947 104.384 31.208L103.712 29.976C104.15 29.6987 104.64 29.4587 105.184 29.256C105.739 29.0533 106.326 28.952 106.944 28.952C107.926 28.952 108.656 29.2453 109.136 29.832C109.627 30.408 109.872 31.2453 109.872 32.344V37H108.352L108.224 36.136H108.16C107.808 36.4347 107.43 36.6853 107.024 36.888C106.63 37.0907 106.198 37.192 105.728 37.192ZM106.32 35.752C106.64 35.752 106.928 35.6773 107.184 35.528C107.451 35.368 107.734 35.1547 108.032 34.888V33.128C106.966 33.2667 106.224 33.4747 105.808 33.752C105.392 34.0187 105.184 34.3493 105.184 34.744C105.184 35.096 105.291 35.352 105.504 35.512C105.718 35.672 105.99 35.752 106.32 35.752ZM112.074 40.104V29.144H113.594L113.722 29.976H113.786C114.117 29.6987 114.485 29.4587 114.89 29.256C115.306 29.0533 115.728 28.952 116.154 28.952C117.136 28.952 117.893 29.3147 118.426 30.04C118.97 30.7653 119.242 31.736 119.242 32.952C119.242 33.848 119.082 34.616 118.762 35.256C118.442 35.8853 118.026 36.3653 117.514 36.696C117.013 37.0267 116.469 37.192 115.882 37.192C115.541 37.192 115.2 37.1173 114.858 36.968C114.517 36.808 114.186 36.5947 113.866 36.328L113.914 37.64V40.104H112.074ZM115.498 35.672C116.021 35.672 116.458 35.4427 116.81 34.984C117.162 34.5253 117.338 33.8533 117.338 32.968C117.338 32.1787 117.205 31.5653 116.938 31.128C116.672 30.6907 116.24 30.472 115.642 30.472C115.088 30.472 114.512 30.7653 113.914 31.352V35.016C114.202 35.2507 114.48 35.4213 114.746 35.528C115.013 35.624 115.264 35.672 115.498 35.672Z" fill="white"/>
<rect x="31.5" y="56.5" width="232" height="263" rx="7.5" stroke="#5D5D5D"/>
<path d="M46.836 79.168C46.22 79.168 45.6227 79.0513 45.044 78.818C44.4747 78.5847 43.9707 78.2533 43.532 77.824L44.484 76.718C44.8107 77.026 45.184 77.278 45.604 77.474C46.024 77.6607 46.444 77.754 46.864 77.754C47.3867 77.754 47.7833 77.6467 48.054 77.432C48.3247 77.2173 48.46 76.9327 48.46 76.578C48.46 76.1953 48.3247 75.92 48.054 75.752C47.7927 75.584 47.4567 75.4113 47.046 75.234L45.786 74.688C45.4873 74.5573 45.1933 74.3893 44.904 74.184C44.624 73.9787 44.3907 73.7173 44.204 73.4C44.0267 73.0827 43.938 72.7 43.938 72.252C43.938 71.7667 44.0687 71.3327 44.33 70.95C44.6007 70.558 44.9647 70.25 45.422 70.026C45.8887 69.7927 46.4207 69.676 47.018 69.676C47.55 69.676 48.0633 69.7833 48.558 69.998C49.0527 70.2033 49.4773 70.4833 49.832 70.838L49.006 71.874C48.7167 71.6313 48.4087 71.44 48.082 71.3C47.7647 71.16 47.41 71.09 47.018 71.09C46.5887 71.09 46.2387 71.188 45.968 71.384C45.7067 71.5707 45.576 71.832 45.576 72.168C45.576 72.4013 45.6413 72.5973 45.772 72.756C45.912 72.9053 46.094 73.036 46.318 73.148C46.542 73.2507 46.78 73.3533 47.032 73.456L48.278 73.974C48.8193 74.2073 49.2627 74.5153 49.608 74.898C49.9533 75.2713 50.126 75.7893 50.126 76.452C50.126 76.9467 49.9953 77.3993 49.734 77.81C49.4727 78.2207 49.0947 78.552 48.6 78.804C48.1147 79.0467 47.5267 79.168 46.836 79.168ZM53.7038 79.168C52.9104 79.168 52.3458 78.9393 52.0098 78.482C51.6831 78.0153 51.5198 77.4133 51.5198 76.676V73.4H50.5398V72.196L51.6038 72.126L51.7998 70.25H53.1438V72.126H54.8938V73.4H53.1438V76.676C53.1438 77.4787 53.4658 77.88 54.1098 77.88C54.2311 77.88 54.3571 77.866 54.4878 77.838C54.6184 77.8007 54.7304 77.7633 54.8238 77.726L55.1038 78.916C54.9171 78.9813 54.7024 79.0373 54.4598 79.084C54.2264 79.14 53.9744 79.168 53.7038 79.168ZM59.0616 79.168C58.4269 79.168 57.8529 79.028 57.3396 78.748C56.8263 78.4587 56.4203 78.048 56.1216 77.516C55.8229 76.9747 55.6736 76.326 55.6736 75.57C55.6736 74.8233 55.8229 74.1793 56.1216 73.638C56.4296 73.0967 56.8263 72.6813 57.3116 72.392C57.7969 72.1027 58.3056 71.958 58.8376 71.958C59.4629 71.958 59.9856 72.098 60.4056 72.378C60.8256 72.6487 61.1429 73.0313 61.3576 73.526C61.5723 74.0113 61.6796 74.576 61.6796 75.22C61.6796 75.556 61.6563 75.8173 61.6096 76.004H57.2416C57.3163 76.6107 57.5356 77.082 57.8996 77.418C58.2636 77.754 58.7209 77.922 59.2716 77.922C59.5703 77.922 59.8456 77.88 60.0976 77.796C60.3589 77.7027 60.6156 77.5767 60.8676 77.418L61.4136 78.426C61.0869 78.6407 60.7229 78.818 60.3216 78.958C59.9203 79.098 59.5003 79.168 59.0616 79.168ZM57.2276 74.912H60.2796C60.2796 74.38 60.1629 73.9647 59.9296 73.666C59.6963 73.358 59.3463 73.204 58.8796 73.204C58.4783 73.204 58.1189 73.3533 57.8016 73.652C57.4936 73.9413 57.3023 74.3613 57.2276 74.912ZM63.2173 81.716V72.126H64.5473L64.6593 72.854H64.7153C65.0046 72.6113 65.3266 72.4013 65.6813 72.224C66.0453 72.0467 66.414 71.958 66.7873 71.958C67.646 71.958 68.3086 72.2753 68.7753 72.91C69.2513 73.5447 69.4893 74.394 69.4893 75.458C69.4893 76.242 69.3493 76.914 69.0693 77.474C68.7893 78.0247 68.4253 78.4447 67.9773 78.734C67.5386 79.0233 67.0626 79.168 66.5493 79.168C66.2506 79.168 65.952 79.1027 65.6533 78.972C65.3546 78.832 65.0653 78.6453 64.7853 78.412L64.8273 79.56V81.716H63.2173ZM66.2133 77.838C66.6706 77.838 67.0533 77.6373 67.3613 77.236C67.6693 76.8347 67.8233 76.2467 67.8233 75.472C67.8233 74.7813 67.7066 74.2447 67.4733 73.862C67.24 73.4793 66.862 73.288 66.3393 73.288C65.854 73.288 65.35 73.5447 64.8273 74.058V77.264C65.0793 77.4693 65.322 77.6187 65.5553 77.712C65.7886 77.796 66.008 77.838 66.2133 77.838ZM72.983 79.168C72.5163 79.168 72.0496 79.0793 71.583 78.902C71.1163 78.7153 70.715 78.4867 70.379 78.216L71.135 77.18C71.443 77.4133 71.751 77.6 72.059 77.74C72.367 77.88 72.6936 77.95 73.039 77.95C73.4123 77.95 73.6876 77.8707 73.865 77.712C74.0423 77.5533 74.131 77.3573 74.131 77.124C74.131 76.928 74.0563 76.7693 73.907 76.648C73.767 76.5173 73.585 76.4053 73.361 76.312C73.137 76.2093 72.9036 76.1113 72.661 76.018C72.3623 75.906 72.0636 75.7707 71.765 75.612C71.4756 75.444 71.2376 75.234 71.051 74.982C70.8643 74.7207 70.771 74.3987 70.771 74.016C70.771 73.4093 70.995 72.9147 71.443 72.532C71.891 72.1493 72.4976 71.958 73.263 71.958C73.7483 71.958 74.1823 72.042 74.565 72.21C74.9476 72.378 75.279 72.5693 75.559 72.784L74.817 73.764C74.5743 73.5867 74.327 73.4467 74.075 73.344C73.8323 73.232 73.5756 73.176 73.305 73.176C72.9596 73.176 72.703 73.2507 72.535 73.4C72.367 73.54 72.283 73.7173 72.283 73.932C72.283 74.2027 72.423 74.408 72.703 74.548C72.983 74.688 73.3096 74.8233 73.683 74.954C74.0003 75.066 74.3083 75.206 74.607 75.374C74.9056 75.5327 75.153 75.7427 75.349 76.004C75.5543 76.2653 75.657 76.6107 75.657 77.04C75.657 77.628 75.4283 78.132 74.971 78.552C74.5136 78.9627 73.851 79.168 72.983 79.168Z" fill="white"/>
<rect x="46" y="94" width="202" height="14" rx="4" fill="#6D6D6D"/>
<path d="M46.814 128V126.966H48.376V122.368H47.089V121.576C47.4337 121.51 47.7343 121.433 47.991 121.345C48.2477 121.25 48.486 121.136 48.706 121.004H49.652V126.966H51.027V128H46.814Z" fill="white"/>
<rect x="67" y="118.5" width="48" height="11" rx="4" fill="#41CDFB" fill-opacity="0.64"/>
<path d="M78 124.5H104" stroke="#E3E3E3" stroke-width="3" stroke-linecap="round"/>
<path d="M130 124H156" stroke="#E3E3E3" stroke-width="3" stroke-linecap="round"/>
<rect x="171.5" y="119" width="47" height="10" rx="5" stroke="#EC57A8"/>
<path d="M46.418 150V149.263C47.0707 148.632 47.6317 148.071 48.101 147.58C48.5777 147.081 48.9443 146.63 49.201 146.227C49.4577 145.816 49.586 145.435 49.586 145.083C49.586 144.716 49.487 144.423 49.289 144.203C49.091 143.983 48.805 143.873 48.431 143.873C48.1597 143.873 47.9103 143.95 47.683 144.104C47.463 144.258 47.2577 144.441 47.067 144.654L46.363 143.95C46.6857 143.605 47.0193 143.341 47.364 143.158C47.7087 142.967 48.1193 142.872 48.596 142.872C49.2707 142.872 49.806 143.066 50.202 143.455C50.6053 143.844 50.807 144.364 50.807 145.017C50.807 145.428 50.6897 145.849 50.455 146.282C50.2277 146.707 49.9197 147.144 49.531 147.591C49.1497 148.038 48.728 148.508 48.266 148.999C48.4493 148.984 48.6473 148.97 48.86 148.955C49.0727 148.933 49.2633 148.922 49.432 148.922H51.148V150H46.418Z" fill="white"/>
<rect x="67" y="140.5" width="48" height="11" rx="4" fill="#41CDFB" fill-opacity="0.64"/>
<path d="M78 146.5H104" stroke="#E3E3E3" stroke-width="3" stroke-linecap="round"/>
<path d="M130 146H156" stroke="#E3E3E3" stroke-width="3" stroke-linecap="round"/>
<rect x="171.5" y="141" width="47" height="10" rx="5" stroke="#EC57A8"/>
<path d="M48.64 172.132C48.0753 172.132 47.5987 172.037 47.21 171.846C46.8287 171.648 46.5133 171.413 46.264 171.142L46.869 170.328C47.0817 170.541 47.3237 170.724 47.595 170.878C47.8663 171.025 48.178 171.098 48.53 171.098C48.9113 171.098 49.2193 171.006 49.454 170.823C49.696 170.632 49.817 170.372 49.817 170.042C49.817 169.8 49.7547 169.591 49.63 169.415C49.5127 169.232 49.3037 169.092 49.003 168.997C48.7097 168.902 48.2953 168.854 47.76 168.854V167.93C48.4493 167.93 48.926 167.824 49.19 167.611C49.454 167.398 49.586 167.131 49.586 166.808C49.586 166.515 49.4943 166.287 49.311 166.126C49.1277 165.957 48.8747 165.873 48.552 165.873C48.2807 165.873 48.0313 165.935 47.804 166.06C47.5767 166.177 47.3567 166.335 47.144 166.533L46.495 165.752C46.7957 165.488 47.1147 165.275 47.452 165.114C47.7967 164.953 48.178 164.872 48.596 164.872C49.2707 164.872 49.817 165.033 50.235 165.356C50.653 165.671 50.862 166.126 50.862 166.72C50.862 167.109 50.752 167.439 50.532 167.71C50.3193 167.974 50.0223 168.179 49.641 168.326V168.37C50.0517 168.48 50.3963 168.682 50.675 168.975C50.9537 169.268 51.093 169.646 51.093 170.108C51.093 170.533 50.9793 170.896 50.752 171.197C50.532 171.498 50.235 171.729 49.861 171.89C49.4943 172.051 49.0873 172.132 48.64 172.132Z" fill="white"/>
<rect x="67" y="162.5" width="48" height="11" rx="4" fill="#41CDFB" fill-opacity="0.64"/>
<path d="M78 168.5H104" stroke="#E3E3E3" stroke-width="3" stroke-linecap="round"/>
<path d="M130 168H156" stroke="#E3E3E3" stroke-width="3" stroke-linecap="round"/>
<rect x="171.5" y="163" width="47" height="10" rx="5" stroke="#EC57A8"/>
<path d="M47.452 191.217H49.289V189.633C49.289 189.428 49.2963 189.186 49.311 188.907C49.3257 188.628 49.3367 188.386 49.344 188.181H49.3C49.212 188.364 49.1203 188.544 49.025 188.72C48.9297 188.896 48.8307 189.079 48.728 189.27L47.452 191.217ZM49.289 194V192.196H46.198V191.338L48.97 187.004H50.477V191.217H51.357V192.196H50.477V194H49.289Z" fill="white"/>
<rect x="67" y="184.5" width="48" height="11" rx="4" fill="#41CDFB" fill-opacity="0.64"/>
<path d="M78 190.5H104" stroke="#E3E3E3" stroke-width="3" stroke-linecap="round"/>
<path d="M130 190H156" stroke="#E3E3E3" stroke-width="3" stroke-linecap="round"/>
<rect x="171.5" y="185" width="47" height="10" rx="5" stroke="#EC57A8"/>
<path d="M48.651 216.132C48.0863 216.132 47.6097 216.037 47.221 215.846C46.8397 215.648 46.5207 215.421 46.264 215.164L46.847 214.35C47.0597 214.548 47.298 214.724 47.562 214.878C47.826 215.025 48.134 215.098 48.486 215.098C48.8747 215.098 49.1973 214.981 49.454 214.746C49.7107 214.511 49.839 214.181 49.839 213.756C49.839 213.338 49.7217 213.015 49.487 212.788C49.2523 212.561 48.9407 212.447 48.552 212.447C48.3247 212.447 48.134 212.48 47.98 212.546C47.826 212.605 47.6427 212.704 47.43 212.843L46.825 212.458L47.034 209.004H50.774V210.071H48.134L47.991 211.765C48.1377 211.692 48.2807 211.637 48.42 211.6C48.5667 211.556 48.7317 211.534 48.915 211.534C49.3183 211.534 49.685 211.611 50.015 211.765C50.345 211.919 50.609 212.157 50.807 212.48C51.0123 212.803 51.115 213.217 51.115 213.723C51.115 214.229 50.9977 214.662 50.763 215.021C50.5357 215.38 50.235 215.655 49.861 215.846C49.487 216.037 49.0837 216.132 48.651 216.132Z" fill="white"/>
<rect x="67" y="206.5" width="48" height="11" rx="4" fill="#41CDFB" fill-opacity="0.64"/>
<path d="M78 212.5H104" stroke="#E3E3E3" stroke-width="3" stroke-linecap="round"/>
<path d="M130 212H156" stroke="#E3E3E3" stroke-width="3" stroke-linecap="round"/>
<rect x="171.5" y="207" width="47" height="10" rx="5" stroke="#EC57A8"/>
<path d="M48.948 234.59C48.75 234.59 48.541 234.652 48.321 234.777C48.101 234.894 47.892 235.1 47.694 235.393C47.76 236.016 47.9103 236.467 48.145 236.746C48.3797 237.025 48.6657 237.164 49.003 237.164C49.2963 237.164 49.542 237.05 49.74 236.823C49.9453 236.588 50.048 236.258 50.048 235.833C50.048 235.422 49.949 235.114 49.751 234.909C49.5603 234.696 49.2927 234.59 48.948 234.59ZM49.025 238.132C48.5703 238.132 48.1487 238.011 47.76 237.769C47.3713 237.527 47.0597 237.153 46.825 236.647C46.5977 236.141 46.484 235.496 46.484 234.711C46.484 233.802 46.6123 233.068 46.869 232.511C47.133 231.946 47.474 231.532 47.892 231.268C48.31 231.004 48.7573 230.872 49.234 230.872C49.6593 230.872 50.026 230.949 50.334 231.103C50.642 231.257 50.8987 231.444 51.104 231.664L50.422 232.434C50.2973 232.28 50.1323 232.155 49.927 232.06C49.729 231.957 49.5237 231.906 49.311 231.906C49.0177 231.906 48.75 231.987 48.508 232.148C48.266 232.309 48.068 232.581 47.914 232.962C47.7673 233.336 47.683 233.846 47.661 234.491C47.8663 234.234 48.1083 234.033 48.387 233.886C48.6657 233.739 48.9297 233.666 49.179 233.666C49.7877 233.666 50.279 233.846 50.653 234.205C51.0343 234.557 51.225 235.1 51.225 235.833C51.225 236.295 51.1223 236.698 50.917 237.043C50.719 237.388 50.455 237.655 50.125 237.846C49.795 238.037 49.4283 238.132 49.025 238.132Z" fill="white"/>
<rect x="67" y="228.5" width="48" height="11" rx="4" fill="#41CDFB" fill-opacity="0.64"/>
<path d="M78 234.5H104" stroke="#E3E3E3" stroke-width="3" stroke-linecap="round"/>
<path d="M130 234H156" stroke="#E3E3E3" stroke-width="3" stroke-linecap="round"/>
<rect x="171.5" y="229" width="47" height="10" rx="5" stroke="#EC57A8"/>
<path d="M47.848 260C47.892 259.171 47.98 258.431 48.112 257.778C48.244 257.118 48.4457 256.491 48.717 255.897C48.9883 255.303 49.3477 254.694 49.795 254.071H46.484V253.004H51.181V253.774C50.7703 254.28 50.4367 254.764 50.18 255.226C49.9307 255.688 49.7327 256.157 49.586 256.634C49.4467 257.103 49.344 257.613 49.278 258.163C49.212 258.706 49.1643 259.318 49.135 260H47.848Z" fill="white"/>
<rect x="67" y="250.5" width="48" height="11" rx="4" fill="#41CDFB" fill-opacity="0.64"/>
<path d="M78 256.5H104" stroke="#E3E3E3" stroke-width="3" stroke-linecap="round"/>
<path d="M130 256H156" stroke="#E3E3E3" stroke-width="3" stroke-linecap="round"/>
<rect x="171.5" y="251" width="47" height="10" rx="5" stroke="#EC57A8"/>
<path d="M48.827 282.132C48.3723 282.132 47.9653 282.051 47.606 281.89C47.2467 281.721 46.9643 281.494 46.759 281.208C46.5537 280.922 46.451 280.588 46.451 280.207C46.451 279.774 46.5793 279.411 46.836 279.118C47.0927 278.825 47.386 278.59 47.716 278.414V278.37C47.4447 278.179 47.2137 277.952 47.023 277.688C46.8397 277.417 46.748 277.098 46.748 276.731C46.748 276.35 46.8397 276.023 47.023 275.752C47.2063 275.473 47.4557 275.257 47.771 275.103C48.0937 274.949 48.4567 274.872 48.86 274.872C49.4907 274.872 49.9893 275.048 50.356 275.4C50.73 275.745 50.917 276.199 50.917 276.764C50.917 277.109 50.818 277.42 50.62 277.699C50.422 277.978 50.2093 278.201 49.982 278.37V278.414C50.3047 278.597 50.587 278.828 50.829 279.107C51.071 279.386 51.192 279.76 51.192 280.229C51.192 280.588 51.093 280.911 50.895 281.197C50.697 281.483 50.422 281.71 50.07 281.879C49.718 282.048 49.3037 282.132 48.827 282.132ZM49.289 278.051C49.4797 277.86 49.6227 277.666 49.718 277.468C49.8207 277.27 49.872 277.061 49.872 276.841C49.872 276.533 49.7803 276.28 49.597 276.082C49.4137 275.877 49.1607 275.774 48.838 275.774C48.5667 275.774 48.3393 275.858 48.156 276.027C47.9727 276.196 47.881 276.43 47.881 276.731C47.881 276.966 47.9433 277.164 48.068 277.325C48.1927 277.479 48.3613 277.615 48.574 277.732C48.794 277.842 49.0323 277.948 49.289 278.051ZM48.849 281.23C49.1863 281.23 49.4613 281.138 49.674 280.955C49.894 280.764 50.004 280.508 50.004 280.185C50.004 279.928 49.927 279.719 49.773 279.558C49.6263 279.397 49.4247 279.257 49.168 279.14C48.9187 279.015 48.6363 278.891 48.321 278.766C48.101 278.927 47.9177 279.118 47.771 279.338C47.6317 279.558 47.562 279.804 47.562 280.075C47.562 280.42 47.6867 280.698 47.936 280.911C48.1853 281.124 48.4897 281.23 48.849 281.23Z" fill="white"/>
<rect x="67" y="272.5" width="48" height="11" rx="4" fill="#41CDFB" fill-opacity="0.64"/>
<path d="M78 278.5H104" stroke="#E3E3E3" stroke-width="3" stroke-linecap="round"/>
<path d="M130 278H156" stroke="#E3E3E3" stroke-width="3" stroke-linecap="round"/>
<rect x="171.5" y="273" width="47" height="10" rx="5" stroke="#EC57A8"/>
<path d="M47.573 299.16C47.573 299.571 47.6683 299.882 47.859 300.095C48.057 300.308 48.332 300.414 48.684 300.414C48.8893 300.414 49.102 300.352 49.322 300.227C49.5493 300.095 49.7547 299.886 49.938 299.6C49.872 298.984 49.7217 298.537 49.487 298.258C49.2523 297.979 48.9627 297.84 48.618 297.84C48.332 297.84 48.0863 297.954 47.881 298.181C47.6757 298.408 47.573 298.735 47.573 299.16ZM48.387 304.132C47.969 304.132 47.606 304.055 47.298 303.901C46.99 303.747 46.7297 303.56 46.517 303.34L47.199 302.57C47.331 302.724 47.496 302.852 47.694 302.955C47.8993 303.05 48.1083 303.098 48.321 303.098C48.6143 303.098 48.882 303.017 49.124 302.856C49.366 302.695 49.564 302.427 49.718 302.053C49.872 301.672 49.9563 301.158 49.971 300.513C49.7657 300.762 49.5237 300.96 49.245 301.107C48.9663 301.254 48.6987 301.327 48.442 301.327C47.8407 301.327 47.3493 301.151 46.968 300.799C46.594 300.44 46.407 299.893 46.407 299.16C46.407 298.691 46.506 298.287 46.704 297.95C46.9093 297.605 47.177 297.341 47.507 297.158C47.8443 296.967 48.211 296.872 48.607 296.872C49.0617 296.872 49.4797 296.993 49.861 297.235C50.2497 297.477 50.5577 297.851 50.785 298.357C51.0197 298.856 51.137 299.497 51.137 300.282C51.137 301.184 51.0087 301.921 50.752 302.493C50.4953 303.058 50.158 303.472 49.74 303.736C49.322 304 48.871 304.132 48.387 304.132Z" fill="white"/>
<rect x="67" y="294.5" width="48" height="11" rx="4" fill="#41CDFB" fill-opacity="0.64"/>
<path d="M78 300.5H104" stroke="#E3E3E3" stroke-width="3" stroke-linecap="round"/>
<path d="M130 300H156" stroke="#E3E3E3" stroke-width="3" stroke-linecap="round"/>
<rect x="171.5" y="295" width="47" height="10" rx="5" stroke="#EC57A8"/>
<rect x="283.5" y="56.5" width="232" height="263" rx="7.5" stroke="#5D5D5D"/>
<path d="M296.162 79V69.844H298.612C300.012 69.844 301.104 70.222 301.888 70.978C302.672 71.734 303.064 72.868 303.064 74.38C303.064 75.9013 302.677 77.054 301.902 77.838C301.127 78.6127 300.059 79 298.696 79H296.162ZM297.786 77.684H298.5C299.424 77.684 300.138 77.418 300.642 76.886C301.146 76.3447 301.398 75.5093 301.398 74.38C301.398 73.26 301.146 72.4433 300.642 71.93C300.138 71.4167 299.424 71.16 298.5 71.16H297.786V77.684ZM304.772 79V72.126H306.382V79H304.772ZM305.584 70.922C305.295 70.922 305.061 70.838 304.884 70.67C304.707 70.502 304.618 70.278 304.618 69.998C304.618 69.7273 304.707 69.508 304.884 69.34C305.061 69.172 305.295 69.088 305.584 69.088C305.873 69.088 306.107 69.172 306.284 69.34C306.461 69.508 306.55 69.7273 306.55 69.998C306.55 70.278 306.461 70.502 306.284 70.67C306.107 70.838 305.873 70.922 305.584 70.922ZM310.102 79.168C309.505 79.168 309.015 78.9813 308.632 78.608C308.259 78.2347 308.072 77.7493 308.072 77.152C308.072 76.4147 308.394 75.8453 309.038 75.444C309.682 75.0333 310.709 74.7533 312.118 74.604C312.109 74.24 312.011 73.9273 311.824 73.666C311.647 73.3953 311.325 73.26 310.858 73.26C310.522 73.26 310.191 73.3253 309.864 73.456C309.547 73.5867 309.234 73.7453 308.926 73.932L308.338 72.854C308.721 72.6113 309.15 72.4013 309.626 72.224C310.111 72.0467 310.625 71.958 311.166 71.958C312.025 71.958 312.664 72.2147 313.084 72.728C313.513 73.232 313.728 73.9647 313.728 74.926V79H312.398L312.286 78.244H312.23C311.922 78.5053 311.591 78.7247 311.236 78.902C310.891 79.0793 310.513 79.168 310.102 79.168ZM310.62 77.908C310.9 77.908 311.152 77.8427 311.376 77.712C311.609 77.572 311.857 77.3853 312.118 77.152V75.612C311.185 75.7333 310.536 75.9153 310.172 76.158C309.808 76.3913 309.626 76.6807 309.626 77.026C309.626 77.334 309.719 77.558 309.906 77.698C310.093 77.838 310.331 77.908 310.62 77.908ZM318.049 82.038C317.507 82.038 317.017 81.9727 316.579 81.842C316.149 81.7113 315.809 81.5107 315.557 81.24C315.314 80.9787 315.193 80.6473 315.193 80.246C315.193 79.6767 315.519 79.1867 316.173 78.776V78.72C315.995 78.608 315.846 78.4587 315.725 78.272C315.613 78.0853 315.557 77.852 315.557 77.572C315.557 77.3013 315.631 77.0587 315.781 76.844C315.939 76.62 316.117 76.438 316.313 76.298V76.242C316.079 76.0647 315.869 75.8173 315.683 75.5C315.505 75.1827 315.417 74.8233 315.417 74.422C315.417 73.89 315.543 73.442 315.795 73.078C316.047 72.714 316.378 72.4387 316.789 72.252C317.209 72.056 317.657 71.958 318.133 71.958C318.319 71.958 318.497 71.9767 318.665 72.014C318.842 72.042 319.001 72.0793 319.141 72.126H321.605V73.316H320.345C320.457 73.4467 320.55 73.6147 320.625 73.82C320.699 74.016 320.737 74.2353 320.737 74.478C320.737 74.982 320.62 75.4113 320.387 75.766C320.153 76.1113 319.841 76.3727 319.449 76.55C319.057 76.7273 318.618 76.816 318.133 76.816C317.983 76.816 317.829 76.802 317.671 76.774C317.512 76.746 317.353 76.6993 317.195 76.634C317.092 76.7273 317.008 76.8207 316.943 76.914C316.887 77.0073 316.859 77.1333 316.859 77.292C316.859 77.488 316.938 77.642 317.097 77.754C317.265 77.866 317.559 77.922 317.979 77.922H319.197C320.027 77.922 320.653 78.0573 321.073 78.328C321.502 78.5893 321.717 79.0187 321.717 79.616C321.717 80.064 321.567 80.47 321.269 80.834C320.97 81.2073 320.545 81.5013 319.995 81.716C319.444 81.9307 318.795 82.038 318.049 82.038ZM318.133 75.808C318.459 75.808 318.739 75.6867 318.973 75.444C319.206 75.2013 319.323 74.8607 319.323 74.422C319.323 73.9927 319.206 73.6613 318.973 73.428C318.749 73.1853 318.469 73.064 318.133 73.064C317.797 73.064 317.512 73.1807 317.279 73.414C317.045 73.6473 316.929 73.9833 316.929 74.422C316.929 74.8607 317.045 75.2013 317.279 75.444C317.512 75.6867 317.797 75.808 318.133 75.808ZM318.301 80.988C318.851 80.988 319.299 80.876 319.645 80.652C319.99 80.428 320.163 80.1713 320.163 79.882C320.163 79.6113 320.055 79.4293 319.841 79.336C319.635 79.2427 319.337 79.196 318.945 79.196H318.007C317.633 79.196 317.321 79.1633 317.069 79.098C316.714 79.3687 316.537 79.672 316.537 80.008C316.537 80.316 316.695 80.554 317.013 80.722C317.33 80.8993 317.759 80.988 318.301 80.988ZM322.928 79V72.126H324.258L324.37 73.344H324.426C324.669 72.896 324.963 72.5553 325.308 72.322C325.654 72.0793 326.008 71.958 326.372 71.958C326.699 71.958 326.96 72.0047 327.156 72.098L326.876 73.498C326.755 73.4607 326.643 73.4327 326.54 73.414C326.438 73.3953 326.312 73.386 326.162 73.386C325.892 73.386 325.607 73.4933 325.308 73.708C325.01 73.9133 324.753 74.2773 324.538 74.8V79H322.928ZM329.448 79.168C328.85 79.168 328.36 78.9813 327.978 78.608C327.604 78.2347 327.418 77.7493 327.418 77.152C327.418 76.4147 327.74 75.8453 328.384 75.444C329.028 75.0333 330.054 74.7533 331.464 74.604C331.454 74.24 331.356 73.9273 331.17 73.666C330.992 73.3953 330.67 73.26 330.204 73.26C329.868 73.26 329.536 73.3253 329.21 73.456C328.892 73.5867 328.58 73.7453 328.272 73.932L327.684 72.854C328.066 72.6113 328.496 72.4013 328.972 72.224C329.457 72.0467 329.97 71.958 330.512 71.958C331.37 71.958 332.01 72.2147 332.43 72.728C332.859 73.232 333.074 73.9647 333.074 74.926V79H331.744L331.632 78.244H331.576C331.268 78.5053 330.936 78.7247 330.582 78.902C330.236 79.0793 329.858 79.168 329.448 79.168ZM329.966 77.908C330.246 77.908 330.498 77.8427 330.722 77.712C330.955 77.572 331.202 77.3853 331.464 77.152V75.612C330.53 75.7333 329.882 75.9153 329.518 76.158C329.154 76.3913 328.972 76.6807 328.972 77.026C328.972 77.334 329.065 77.558 329.252 77.698C329.438 77.838 329.676 77.908 329.966 77.908ZM335.001 79V72.126H336.331L336.443 73.064H336.499C336.788 72.756 337.101 72.4947 337.437 72.28C337.782 72.0653 338.169 71.958 338.599 71.958C339.103 71.958 339.504 72.07 339.803 72.294C340.111 72.5087 340.344 72.8073 340.503 73.19C340.829 72.8353 341.17 72.5413 341.525 72.308C341.889 72.0747 342.285 71.958 342.715 71.958C343.443 71.958 343.979 72.196 344.325 72.672C344.67 73.148 344.843 73.82 344.843 74.688V79H343.219V74.898C343.219 74.3287 343.13 73.9273 342.953 73.694C342.785 73.4607 342.523 73.344 342.169 73.344C341.739 73.344 341.259 73.6287 340.727 74.198V79H339.117V74.898C339.117 74.3287 339.028 73.9273 338.851 73.694C338.683 73.4607 338.417 73.344 338.053 73.344C337.623 73.344 337.143 73.6287 336.611 74.198V79H335.001Z" fill="white"/>
<rect x="295" y="97" width="35" height="12" rx="4" fill="#5B5AF7"/>
<path d="M305 103H319" stroke="#E3E3E3" stroke-width="3" stroke-linecap="round"/>
<rect x="465" y="294" width="35" height="12" rx="4" fill="#EC57A8"/>
<path d="M475 300H489" stroke="#E3E3E3" stroke-width="3" stroke-linecap="round"/>
<rect x="325.5" y="123.5" width="47" height="15" rx="3.5" stroke="#909090"/>
<rect x="390.5" y="123.5" width="47" height="15" rx="3.5" stroke="#909090"/>
<rect x="390.5" y="167.5" width="32" height="15" rx="3.5" stroke="#909090"/>
<rect x="442.5" y="155.5" width="32" height="15" rx="3.5" stroke="#909090"/>
<rect x="442.5" y="180.5" width="32" height="15" rx="3.5" stroke="#909090"/>
<rect x="397.5" y="229.5" width="32" height="15" rx="3.5" stroke="#909090"/>
<rect x="364.5" y="290.5" width="32" height="15" rx="3.5" stroke="#909090"/>
<rect x="442.5" y="229.5" width="32" height="15" rx="3.5" stroke="#909090"/>
<path d="M330 101.5C329.167 101.5 328.5 102.167 328.5 103C328.5 103.833 329.167 104.5 330 104.5C330.833 104.5 331.5 103.833 331.5 103C331.5 102.167 330.833 101.5 330 101.5Z" fill="white"/>
<path d="M348.823 123.177C348.921 123.274 349.079 123.274 349.177 123.177L350.768 121.586C350.865 121.488 350.865 121.33 350.768 121.232C350.67 121.135 350.512 121.135 350.414 121.232L349 122.646L347.586 121.232C347.488 121.135 347.33 121.135 347.232 121.232C347.135 121.33 347.135 121.488 347.232 121.586L348.823 123.177ZM328.75 103C328.75 102.305 329.305 101.75 330 101.75V101.25C329.029 101.25 328.25 102.029 328.25 103H328.75ZM330 101.75C330.695 101.75 331.25 102.305 331.25 103H331.75C331.75 102.029 330.971 101.25 330 101.25V101.75ZM331.25 103C331.25 103.695 330.695 104.25 330 104.25V104.75C330.971 104.75 331.75 103.971 331.75 103H331.25ZM330 104.25C329.305 104.25 328.75 103.695 328.75 103H328.25C328.25 103.971 329.029 104.75 330 104.75V104.25ZM331.5 103.25H345V102.75H331.5V103.25ZM348.75 107V123H349.25V107H348.75ZM345 103.25C347.071 103.25 348.75 104.929 348.75 107H349.25C349.25 104.653 347.347 102.75 345 102.75V103.25Z" fill="white"/>
<path d="M373 129.5C372.167 129.5 371.5 130.167 371.5 131C371.5 131.833 372.167 132.5 373 132.5C373.833 132.5 374.5 131.833 374.5 131C374.5 130.167 373.833 129.5 373 129.5Z" fill="white"/>
<path d="M390.177 131.177C390.274 131.079 390.274 130.921 390.177 130.823L388.586 129.232C388.488 129.135 388.33 129.135 388.232 129.232C388.135 129.33 388.135 129.488 388.232 129.586L389.646 131L388.232 132.414C388.135 132.512 388.135 132.67 388.232 132.768C388.33 132.865 388.488 132.865 388.586 132.768L390.177 131.177ZM371.75 131C371.75 130.305 372.305 129.75 373 129.75V129.25C372.029 129.25 371.25 130.029 371.25 131H371.75ZM373 129.75C373.695 129.75 374.25 130.305 374.25 131H374.75C374.75 130.029 373.971 129.25 373 129.25V129.75ZM374.25 131C374.25 131.695 373.695 132.25 373 132.25V132.75C373.971 132.75 374.75 131.971 374.75 131H374.25ZM373 132.25C372.305 132.25 371.75 131.695 371.75 131H371.25C371.25 131.971 372.029 132.75 373 132.75V132.25ZM374.5 131.25H390V130.75H374.5V131.25Z" fill="white"/>
<path d="M414 137.5C413.167 137.5 412.5 138.167 412.5 139C412.5 139.833 413.167 140.5 414 140.5C414.833 140.5 415.5 139.833 415.5 139C415.5 138.167 414.833 137.5 414 137.5Z" fill="white"/>
<path d="M406.323 167.177C406.421 167.274 406.579 167.274 406.677 167.177L408.268 165.586C408.365 165.488 408.365 165.33 408.268 165.232C408.17 165.135 408.012 165.135 407.914 165.232L406.5 166.646L405.086 165.232C404.988 165.135 404.83 165.135 404.732 165.232C404.635 165.33 404.635 165.488 404.732 165.586L406.323 167.177ZM412.75 139C412.75 138.305 413.305 137.75 414 137.75V137.25C413.029 137.25 412.25 138.029 412.25 139H412.75ZM414 137.75C414.695 137.75 415.25 138.305 415.25 139H415.75C415.75 138.029 414.971 137.25 414 137.25V137.75ZM415.25 139C415.25 139.695 414.695 140.25 414 140.25V140.75C414.971 140.75 415.75 139.971 415.75 139H415.25ZM414 140.25C413.305 140.25 412.75 139.695 412.75 139H412.25C412.25 139.971 413.029 140.75 414 140.75V140.25ZM413.75 140.5V149.25H414.25V140.5H413.75ZM406.25 156.75V167H406.75V156.75H406.25ZM410.25 152.75C408.041 152.75 406.25 154.541 406.25 156.75H406.75C406.75 154.817 408.317 153.25 410.25 153.25V152.75ZM413.75 149.25C413.75 151.183 412.183 152.75 410.25 152.75V153.25C412.459 153.25 414.25 151.459 414.25 149.25H413.75Z" fill="white"/>
<path d="M423 173.5C422.167 173.5 421.5 174.167 421.5 175C421.5 175.833 422.167 176.5 423 176.5C423.833 176.5 424.5 175.833 424.5 175C424.5 174.167 423.833 173.5 423 173.5Z" fill="white"/>
<path d="M442.177 163.177C442.274 163.079 442.274 162.921 442.177 162.823L440.586 161.232C440.488 161.135 440.33 161.135 440.232 161.232C440.135 161.33 440.135 161.488 440.232 161.586L441.646 163L440.232 164.414C440.135 164.512 440.135 164.67 440.232 164.768C440.33 164.865 440.488 164.865 440.586 164.768L442.177 163.177ZM421.75 175C421.75 174.305 422.305 173.75 423 173.75V173.25C422.029 173.25 421.25 174.029 421.25 175H421.75ZM423 173.75C423.695 173.75 424.25 174.305 424.25 175H424.75C424.75 174.029 423.971 173.25 423 173.25V173.75ZM424.25 175C424.25 175.695 423.695 176.25 423 176.25V176.75C423.971 176.75 424.75 175.971 424.75 175H424.25ZM423 176.25C422.305 176.25 421.75 175.695 421.75 175H421.25C421.25 175.971 422.029 176.75 423 176.75V176.25ZM424.5 175.25H428.5V174.75H424.5V175.25ZM432.75 171V167H432.25V171H432.75ZM436.5 163.25H442V162.75H436.5V163.25ZM432.75 167C432.75 164.929 434.429 163.25 436.5 163.25V162.75C434.153 162.75 432.25 164.653 432.25 167H432.75ZM428.5 175.25C430.847 175.25 432.75 173.347 432.75 171H432.25C432.25 173.071 430.571 174.75 428.5 174.75V175.25Z" fill="white"/>
<path d="M423 173.5C422.167 173.5 421.5 174.167 421.5 175C421.5 175.833 422.167 176.5 423 176.5C423.833 176.5 424.5 175.833 424.5 175C424.5 174.167 423.833 173.5 423 173.5Z" fill="white"/>
<path d="M442.177 188.177C442.274 188.079 442.274 187.921 442.177 187.823L440.586 186.232C440.488 186.135 440.33 186.135 440.232 186.232C440.135 186.33 440.135 186.488 440.232 186.586L441.646 188L440.232 189.414C440.135 189.512 440.135 189.67 440.232 189.768C440.33 189.865 440.488 189.865 440.586 189.768L442.177 188.177ZM421.75 175C421.75 174.305 422.305 173.75 423 173.75V173.25C422.029 173.25 421.25 174.029 421.25 175H421.75ZM423 173.75C423.695 173.75 424.25 174.305 424.25 175H424.75C424.75 174.029 423.971 173.25 423 173.25V173.75ZM424.25 175C424.25 175.695 423.695 176.25 423 176.25V176.75C423.971 176.75 424.75 175.971 424.75 175H424.25ZM423 176.25C422.305 176.25 421.75 175.695 421.75 175H421.25C421.25 175.971 422.029 176.75 423 176.75V176.25ZM424.5 175.25H428.5V174.75H424.5V175.25ZM432.25 179V184H432.75V179H432.25ZM436.5 188.25H442V187.75H436.5V188.25ZM432.25 184C432.25 186.347 434.153 188.25 436.5 188.25V187.75C434.429 187.75 432.75 186.071 432.75 184H432.25ZM428.5 175.25C430.571 175.25 432.25 176.929 432.25 179H432.75C432.75 176.653 430.847 174.75 428.5 174.75V175.25Z" fill="white"/>
<path d="M406.5 181.5C405.667 181.5 405 182.167 405 183C405 183.833 405.667 184.5 406.5 184.5C407.333 184.5 408 183.833 408 183C408 182.167 407.333 181.5 406.5 181.5Z" fill="white"/>
<path d="M413.323 229.177C413.421 229.274 413.579 229.274 413.677 229.177L415.268 227.586C415.365 227.488 415.365 227.33 415.268 227.232C415.17 227.135 415.012 227.135 414.914 227.232L413.5 228.646L412.086 227.232C411.988 227.135 411.83 227.135 411.732 227.232C411.635 227.33 411.635 227.488 411.732 227.586L413.323 229.177ZM405.25 183C405.25 182.305 405.805 181.75 406.5 181.75V181.25C405.529 181.25 404.75 182.029 404.75 183H405.25ZM406.5 181.75C407.195 181.75 407.75 182.305 407.75 183H408.25C408.25 182.029 407.471 181.25 406.5 181.25V181.75ZM407.75 183C407.75 183.695 407.195 184.25 406.5 184.25V184.75C407.471 184.75 408.25 183.971 408.25 183H407.75ZM406.5 184.25C405.805 184.25 405.25 183.695 405.25 183H404.75C404.75 183.971 405.529 184.75 406.5 184.75V184.25ZM406.25 184.5V202.5H406.75V184.5H406.25ZM413.25 209.5V229H413.75V209.5H413.25ZM410 206.25C411.795 206.25 413.25 207.705 413.25 209.5H413.75C413.75 207.429 412.071 205.75 410 205.75V206.25ZM406.25 202.5C406.25 204.571 407.929 206.25 410 206.25V205.75C408.205 205.75 406.75 204.295 406.75 202.5H406.25Z" fill="white"/>
<path d="M373 129.5C372.167 129.5 371.5 130.167 371.5 131C371.5 131.833 372.167 132.5 373 132.5C373.833 132.5 374.5 131.833 374.5 131C374.5 130.167 373.833 129.5 373 129.5Z" fill="white"/>
<path d="M380.323 290.177C380.421 290.274 380.579 290.274 380.677 290.177L382.268 288.586C382.365 288.488 382.365 288.33 382.268 288.232C382.17 288.135 382.012 288.135 381.914 288.232L380.5 289.646L379.086 288.232C378.988 288.135 378.83 288.135 378.732 288.232C378.635 288.33 378.635 288.488 378.732 288.586L380.323 290.177ZM371.75 131C371.75 130.305 372.305 129.75 373 129.75V129.25C372.029 129.25 371.25 130.029 371.25 131H371.75ZM373 129.75C373.695 129.75 374.25 130.305 374.25 131H374.75C374.75 130.029 373.971 129.25 373 129.25V129.75ZM374.25 131C374.25 131.695 373.695 132.25 373 132.25V132.75C373.971 132.75 374.75 131.971 374.75 131H374.25ZM373 132.25C372.305 132.25 371.75 131.695 371.75 131H371.25C371.25 131.971 372.029 132.75 373 132.75V132.25ZM374.5 131.25H376.5V130.75H374.5V131.25ZM380.25 135V290H380.75V135H380.25ZM376.5 131.25C378.571 131.25 380.25 132.929 380.25 135H380.75C380.75 132.653 378.847 130.75 376.5 130.75V131.25Z" fill="white"/>
<path d="M430 235.5C429.167 235.5 428.5 236.167 428.5 237C428.5 237.833 429.167 238.5 430 238.5C430.833 238.5 431.5 237.833 431.5 237C431.5 236.167 430.833 235.5 430 235.5Z" fill="white"/>
<path d="M442.177 237.177C442.274 237.079 442.274 236.921 442.177 236.823L440.586 235.232C440.488 235.135 440.33 235.135 440.232 235.232C440.135 235.33 440.135 235.488 440.232 235.586L441.646 237L440.232 238.414C440.135 238.512 440.135 238.67 440.232 238.768C440.33 238.865 440.488 238.865 440.586 238.768L442.177 237.177ZM428.75 237C428.75 236.305 429.305 235.75 430 235.75V235.25C429.029 235.25 428.25 236.029 428.25 237H428.75ZM430 235.75C430.695 235.75 431.25 236.305 431.25 237H431.75C431.75 236.029 430.971 235.25 430 235.25V235.75ZM431.25 237C431.25 237.695 430.695 238.25 430 238.25V238.75C430.971 238.75 431.75 237.971 431.75 237H431.25ZM430 238.25C429.305 238.25 428.75 237.695 428.75 237H428.25C428.25 237.971 429.029 238.75 430 238.75V238.25ZM431.5 237.25H442V236.75H431.5V237.25Z" fill="white"/>
<path d="M475 235.5C474.167 235.5 473.5 236.167 473.5 237C473.5 237.833 474.167 238.5 475 238.5C475.833 238.5 476.5 237.833 476.5 237C476.5 236.167 475.833 235.5 475 235.5Z" fill="white"/>
<path d="M482.323 294.177C482.421 294.274 482.579 294.274 482.677 294.177L484.268 292.586C484.365 292.488 484.365 292.33 484.268 292.232C484.17 292.135 484.012 292.135 483.914 292.232L482.5 293.646L481.086 292.232C480.988 292.135 480.83 292.135 480.732 292.232C480.635 292.33 480.635 292.488 480.732 292.586L482.323 294.177ZM473.75 237C473.75 236.305 474.305 235.75 475 235.75V235.25C474.029 235.25 473.25 236.029 473.25 237H473.75ZM475 235.75C475.695 235.75 476.25 236.305 476.25 237H476.75C476.75 236.029 475.971 235.25 475 235.25V235.75ZM476.25 237C476.25 237.695 475.695 238.25 475 238.25V238.75C475.971 238.75 476.75 237.971 476.75 237H476.25ZM475 238.25C474.305 238.25 473.75 237.695 473.75 237H473.25C473.25 237.971 474.029 238.75 475 238.75V238.25ZM476.5 237.25H478.5V236.75H476.5V237.25ZM482.25 241V294H482.75V241H482.25ZM478.5 237.25C480.571 237.25 482.25 238.929 482.25 241H482.75C482.75 238.653 480.847 236.75 478.5 236.75V237.25Z" fill="white"/>
<path d="M397 296.5C396.167 296.5 395.5 297.167 395.5 298C395.5 298.833 396.167 299.5 397 299.5C397.833 299.5 398.5 298.833 398.5 298C398.5 297.167 397.833 296.5 397 296.5Z" fill="white"/>
<path d="M398.5 298C398.5 297.167 397.833 296.5 397 296.5C396.167 296.5 395.5 297.167 395.5 298C395.5 298.833 396.167 299.5 397 299.5C397.833 299.5 398.5 298.833 398.5 298ZM398.5 298H430C430.552 298 431 298.448 431 299V299C431 299.552 431.448 300 432 300H465" stroke="white" stroke-width="0.5"/>
</svg>
