<svg width="50" height="50" viewBox="0 0 50 50" fill="none" xmlns="http://www.w3.org/2000/svg">
<path fill-rule="evenodd" clip-rule="evenodd" d="M18.7503 4.25C16.0098 4.25 13.3814 5.33869 11.4436 7.27656C9.50568 9.21444 8.41699 11.8428 8.41699 14.5833C8.41699 17.3239 9.50568 19.9522 11.4436 21.8901C13.3814 23.828 16.0098 24.9167 18.7503 24.9167C21.4909 24.9167 24.1192 23.828 26.0571 21.8901C27.995 19.9522 29.0837 17.3239 29.0837 14.5833C29.0837 11.8428 27.995 9.21444 26.0571 7.27656C24.1192 5.33869 21.4909 4.25 18.7503 4.25ZM14.272 10.105C15.4597 8.91726 17.0706 8.25 18.7503 8.25C20.43 8.25 22.0409 8.91726 23.2287 10.105C24.4164 11.2927 25.0837 12.9036 25.0837 14.5833C25.0837 16.263 24.4164 17.8739 23.2287 19.0617C22.0409 20.2494 20.43 20.9167 18.7503 20.9167C17.0706 20.9167 15.4597 20.2494 14.272 19.0617C13.0843 17.8739 12.417 16.263 12.417 14.5833C12.417 12.9036 13.0843 11.2927 14.272 10.105ZM10.105 35.105C11.2927 33.9173 12.9036 33.25 14.5833 33.25H22.9167C24.5964 33.25 26.2073 33.9173 27.395 35.105C28.5827 36.2927 29.25 37.9036 29.25 39.5833V43.75C29.25 44.8546 30.1454 45.75 31.25 45.75C32.3546 45.75 33.25 44.8546 33.25 43.75V39.5833C33.25 36.8428 32.1613 34.2144 30.2234 32.2766C28.2856 30.3387 25.6572 29.25 22.9167 29.25H14.5833C11.8428 29.25 9.21444 30.3387 7.27656 32.2766C5.33869 34.2144 4.25 36.8428 4.25 39.5833V43.75C4.25 44.8546 5.14543 45.75 6.25 45.75C7.35457 45.75 8.25 44.8546 8.25 43.75V39.5833C8.25 37.9036 8.91726 36.2927 10.105 35.105ZM31.396 6.02467C31.67 4.95462 32.7595 4.30927 33.8296 4.58325C36.0523 5.15236 38.0224 6.44506 39.4293 8.25755C40.8362 10.07 41.5998 12.2992 41.5998 14.5937C41.5998 16.8881 40.8362 19.1173 39.4293 20.9298C38.0224 22.7423 36.0523 24.035 33.8296 24.6041C32.7595 24.8781 31.67 24.2327 31.396 23.1627C31.122 22.0926 31.7674 21.0031 32.8374 20.7291C34.1997 20.3803 35.4072 19.588 36.2695 18.4771C37.1318 17.3662 37.5998 15.9999 37.5998 14.5937C37.5998 13.1874 37.1318 11.8211 36.2695 10.7102C35.4072 9.59935 34.1997 8.80705 32.8374 8.45825C31.7674 8.18427 31.122 7.09472 31.396 6.02467ZM38.0005 29.626C36.931 29.3499 35.8401 29.993 35.564 31.0625C35.2879 32.132 35.931 33.2229 37.0005 33.499C38.354 33.8484 39.5538 34.6358 40.413 35.7385C41.2711 36.8397 41.7413 38.1936 41.7505 39.5895V43.75C41.7505 44.8546 42.6459 45.75 43.7505 45.75C44.8551 45.75 45.7505 44.8546 45.7505 43.75L45.7505 39.5833L45.7505 39.5718C45.7373 37.2912 44.9701 35.0789 43.5682 33.2799C42.1664 31.4808 40.2087 30.1961 38.0005 29.626Z" fill="url(#paint0_linear_58_764)"/>
<defs>
<linearGradient id="paint0_linear_58_764" x1="11" y1="8" x2="42" y2="46" gradientUnits="userSpaceOnUse">
<stop stop-color="#F1B2A8"/>
<stop offset="0.48" stop-color="#EC57A8"/>
<stop offset="1" stop-color="#5B5AF7"/>
</linearGradient>
</defs>
</svg>
