<svg width="50" height="50" viewBox="0 0 50 50" fill="none" xmlns="http://www.w3.org/2000/svg">
<path fill-rule="evenodd" clip-rule="evenodd" d="M25 4.25C27.9515 4.24919 30.8693 4.87819 33.5583 6.09498C36.2476 7.31186 38.6462 9.0886 40.5939 11.3065C42.5416 13.5244 43.9937 16.1324 44.853 18.9563C45.7123 21.7802 45.9591 24.755 45.5769 27.6819C45.4339 28.7771 44.4301 29.5491 43.3348 29.4061C42.2395 29.2631 41.4676 28.2592 41.6106 27.164C41.9191 24.8014 41.7198 22.4002 41.0262 20.1208C40.3326 17.8414 39.1605 15.7362 37.5883 13.9459C36.0161 12.1557 34.08 10.7215 31.9093 9.73925C29.7386 8.757 27.3832 8.24928 25.0006 8.25L25 8.25C20.5576 8.25 16.2972 10.0147 13.156 13.156C10.0147 16.2972 8.25 20.5576 8.25 25C8.25 29.4424 10.0147 33.7028 13.156 36.844C16.2972 39.9853 20.5576 41.75 25 41.75C26.1046 41.75 27 42.6454 27 43.75C27 44.8546 26.1046 45.75 25 45.75C19.4968 45.75 14.2189 43.5638 10.3275 39.6725C6.43615 35.7811 4.25 30.5032 4.25 25C4.25 19.4968 6.43615 14.2189 10.3275 10.3275C14.2188 6.4363 19.4964 4.25016 24.9994 4.25H25ZM16.75 20.8333C16.75 19.7287 17.6454 18.8333 18.75 18.8333H18.7708C19.8754 18.8333 20.7708 19.7287 20.7708 20.8333C20.7708 21.9378 19.8754 22.8333 18.7708 22.8333H18.75C17.6454 22.8333 16.75 21.9378 16.75 20.8333ZM31.25 18.8333C30.1454 18.8333 29.25 19.7287 29.25 20.8333C29.25 21.9378 30.1454 22.8333 31.25 22.8333H31.2708C32.3754 22.8333 33.2708 21.9378 33.2708 20.8333C33.2708 19.7287 32.3754 18.8333 31.2708 18.8333H31.25ZM18.3583 29.8555C19.1284 29.0637 20.3947 29.0462 21.1865 29.8163C22.1727 30.7756 23.547 31.3333 25.0003 31.3333C26.4537 31.3333 27.8279 30.7756 28.8142 29.8163C29.606 29.0462 30.8722 29.0637 31.6423 29.8555C32.4125 30.6473 32.3949 31.9135 31.6031 32.6837C29.8477 34.391 27.4637 35.3333 25.0003 35.3333C22.537 35.3333 20.1529 34.391 18.3975 32.6837C17.6057 31.9135 17.5882 30.6473 18.3583 29.8555ZM45.1642 36.831C45.9453 36.0499 45.9453 34.7836 45.1642 34.0025C44.3832 33.2215 43.1168 33.2215 42.3358 34.0025L35.4167 40.9217L32.6642 38.1692C31.8832 37.3882 30.6168 37.3882 29.8358 38.1692C29.0547 38.9502 29.0547 40.2166 29.8358 40.9976L34.0025 45.1643C34.7835 45.9453 36.0498 45.9453 36.8309 45.1643L45.1642 36.831Z" fill="url(#paint0_linear_58_819)"/>
<defs>
<linearGradient id="paint0_linear_58_819" x1="15.5" y1="8" x2="31" y2="46" gradientUnits="userSpaceOnUse">
<stop stop-color="#F1B2A8"/>
<stop offset="0.475" stop-color="#EC57A8"/>
<stop offset="1" stop-color="#5B5AF7"/>
</linearGradient>
</defs>
</svg>
