<svg width="50" height="50" viewBox="0 0 50 50" fill="none" xmlns="http://www.w3.org/2000/svg">
<path fill-rule="evenodd" clip-rule="evenodd" d="M22.0614 4.32872C22.9585 3.82336 23.9707 3.55786 25.0003 3.55786C26.0299 3.55786 27.0421 3.82336 27.9391 4.32872C28.8361 4.83408 29.5877 5.56222 30.1212 6.44281L30.1266 6.4516L30.1265 6.45162L47.014 34.6516L47.0307 34.6801C47.5527 35.5853 47.8287 36.6113 47.8313 37.6562C47.8339 38.7011 47.563 39.7285 47.0456 40.6363C46.5281 41.544 45.7821 42.3006 44.8817 42.8307C43.9812 43.3609 42.9577 43.6461 41.9129 43.6582L41.8898 43.6583H8.11067L8.0882 43.6582C7.04291 43.6465 6.0189 43.3612 5.11804 42.8309C4.21717 42.3006 3.47085 41.5437 2.9533 40.6355C2.43575 39.7272 2.165 38.6993 2.16799 37.6539C2.17099 36.6086 2.44761 35.5822 2.97036 34.6769L2.98655 34.6494L19.8413 6.50818C19.8536 6.48618 19.8662 6.46439 19.8793 6.44281C20.4128 5.56222 21.1644 4.83408 22.0614 4.32872ZM25.0003 7.55786C24.6585 7.55786 24.3225 7.64599 24.0247 7.81374C23.7402 7.97404 23.4997 8.20188 23.3244 8.47687C23.3182 8.48759 23.312 8.49827 23.3056 8.50889L6.42774 36.6887C6.25848 36.9864 6.16896 37.3228 6.16798 37.6654C6.16698 38.0124 6.25685 38.3536 6.42865 38.6551C6.60045 38.9566 6.84819 39.2078 7.14722 39.3839C7.44352 39.5583 7.77995 39.6528 8.12362 39.6583H41.8763C42.2198 39.6527 42.5561 39.5581 42.8522 39.3838C43.1511 39.2078 43.3987 38.9567 43.5705 38.6553C43.7423 38.354 43.8322 38.013 43.8313 37.6661C43.8305 37.3239 43.7412 36.9877 43.5724 36.6901L26.7001 8.5155L26.6979 8.51182C26.5209 8.22116 26.2723 7.98079 25.9758 7.81374C25.678 7.64599 25.342 7.55786 25.0003 7.55786ZM25 16.75C26.1046 16.75 27 17.6454 27 18.75V27.0833C27 28.1879 26.1046 29.0833 25 29.0833C23.8954 29.0833 23 28.1879 23 27.0833V18.75C23 17.6454 23.8954 16.75 25 16.75ZM25 31.3333C23.8954 31.3333 23 32.2287 23 33.3333C23 34.4378 23.8954 35.3333 25 35.3333H25.0208C26.1254 35.3333 27.0208 34.4378 27.0208 33.3333C27.0208 32.2287 26.1254 31.3333 25.0208 31.3333H25Z" fill="url(#paint0_linear_58_785)"/>
<defs>
<linearGradient id="paint0_linear_58_785" x1="19.5" y1="4" x2="42" y2="44" gradientUnits="userSpaceOnUse">
<stop stop-color="#F1B2A8"/>
<stop offset="0.48" stop-color="#EC57A8"/>
<stop offset="1" stop-color="#5B5AF7"/>
</linearGradient>
</defs>
</svg>
