<svg width="50" height="59" viewBox="0 0 50 59" fill="none" xmlns="http://www.w3.org/2000/svg">
<path fill-rule="evenodd" clip-rule="evenodd" d="M34.3084 10.6271C35.2278 10.0148 36.4694 10.2638 37.0816 11.1832L46.6276 25.5177C47.4234 26.6783 47.8333 28.0843 47.8333 29.5001C47.8333 30.9158 47.4234 32.3218 46.6277 33.4824L37.0816 47.817C36.4694 48.7363 35.2278 48.9853 34.3084 48.3731C33.3891 47.7608 33.1401 46.5192 33.7523 45.5998L43.3065 31.253L43.3248 31.226C43.6376 30.7724 43.8333 30.1632 43.8333 29.5001C43.8333 28.837 43.6376 28.2277 43.3248 27.7741L43.3065 27.7472L33.7523 13.4003C33.1401 12.4809 33.3891 11.2393 34.3084 10.6271ZM16.6489 10.2918L16.6666 10.2917C18.3987 10.2917 19.897 11.2278 20.8535 12.5852L20.8539 12.5857L29.9393 25.487L29.9505 25.503C30.7529 26.6664 31.1662 28.0783 31.1662 29.5001C31.1662 30.9218 30.7529 32.3337 29.9505 33.4971L29.9393 33.5131L20.8589 46.4074C20.3918 47.0817 19.7853 47.6548 19.0653 48.0626C18.3398 48.4735 17.5256 48.7009 16.6843 48.7083L16.6666 48.7084C14.9345 48.7084 13.4362 47.7724 12.4797 46.415L12.4793 46.4145L3.39389 33.5131L3.38273 33.4971C2.58031 32.3337 2.16699 30.9219 2.16699 29.5001C2.16699 28.0783 2.58031 26.6664 3.38273 25.503L3.39389 25.487L12.4743 12.5927C12.9414 11.9184 13.5479 11.3453 14.2679 10.9375C14.9934 10.5266 15.8076 10.2993 16.6489 10.2918ZM16.675 14.2918C16.5401 14.2945 16.3926 14.3312 16.2393 14.418C16.0801 14.5082 15.9108 14.6554 15.7608 14.873L15.7497 14.8888L6.67074 27.781C6.36064 28.2339 6.16699 28.8403 6.16699 29.5001C6.16699 30.1599 6.36066 30.7663 6.67079 31.2192L15.7494 44.1108C16.0843 44.5862 16.4396 44.7054 16.6582 44.7084C16.7931 44.7056 16.9406 44.669 17.0939 44.5821C17.2531 44.492 17.4224 44.3447 17.5724 44.1272L17.5835 44.1114L26.6624 31.2192C26.9725 30.7663 27.1662 30.1598 27.1662 29.5001C27.1662 28.8404 26.9726 28.2339 26.6625 27.781L17.5838 14.8893L17.5835 14.8888C17.2486 14.4139 16.8936 14.2948 16.675 14.2918ZM28.7477 11.1832C28.1354 10.2638 26.8938 10.0148 25.9744 10.6271C25.0551 11.2393 24.8061 12.4809 25.4184 13.4003L34.9725 27.7472L34.9908 27.7741C35.3037 28.2277 35.4993 28.837 35.4993 29.5001C35.4993 30.1632 35.3037 30.7724 34.9908 31.226L34.9725 31.253L25.4184 45.5998C24.8061 46.5192 25.0551 47.7608 25.9744 48.3731C26.8938 48.9853 28.1354 48.7363 28.7477 47.817L38.2937 33.4824C39.0895 32.3218 39.4993 30.9158 39.4993 29.5001C39.4993 28.0843 39.0894 26.6783 38.2936 25.5177L28.7477 11.1832Z" fill="url(#paint0_linear_58_775)"/>
<defs>
<linearGradient id="paint0_linear_58_775" x1="12.5" y1="13.5" x2="36.5" y2="48" gradientUnits="userSpaceOnUse">
<stop stop-color="#F1B2A8"/>
<stop offset="0.49" stop-color="#EC57A8"/>
<stop offset="1" stop-color="#5B5AF7"/>
</linearGradient>
</defs>
</svg>
