<svg width="373" height="444" viewBox="0 0 373 444" fill="none" xmlns="http://www.w3.org/2000/svg">
<rect width="373" height="444" fill="#2C2C2C"/>
<path d="M115.999 59.24C114.687 59.24 113.431 59.056 112.231 58.688C111.031 58.304 110.079 57.816 109.375 57.224L110.455 54.8C111.127 55.328 111.959 55.768 112.951 56.12C113.943 56.472 114.959 56.648 115.999 56.648C116.879 56.648 117.591 56.552 118.135 56.36C118.679 56.168 119.079 55.912 119.335 55.592C119.591 55.256 119.719 54.88 119.719 54.464C119.719 53.952 119.535 53.544 119.167 53.24C118.799 52.92 118.319 52.672 117.727 52.496C117.151 52.304 116.503 52.128 115.783 51.968C115.079 51.808 114.367 51.624 113.647 51.416C112.943 51.192 112.295 50.912 111.703 50.576C111.127 50.224 110.655 49.76 110.287 49.184C109.919 48.608 109.735 47.872 109.735 46.976C109.735 46.064 109.975 45.232 110.455 44.48C110.951 43.712 111.695 43.104 112.687 42.656C113.695 42.192 114.967 41.96 116.503 41.96C117.511 41.96 118.511 42.088 119.503 42.344C120.495 42.6 121.359 42.968 122.095 43.448L121.111 45.872C120.359 45.424 119.583 45.096 118.783 44.888C117.983 44.664 117.215 44.552 116.479 44.552C115.615 44.552 114.911 44.656 114.367 44.864C113.839 45.072 113.447 45.344 113.191 45.68C112.951 46.016 112.831 46.4 112.831 46.832C112.831 47.344 113.007 47.76 113.359 48.08C113.727 48.384 114.199 48.624 114.775 48.8C115.367 48.976 116.023 49.152 116.743 49.328C117.463 49.488 118.175 49.672 118.879 49.88C119.599 50.088 120.247 50.36 120.823 50.696C121.415 51.032 121.887 51.488 122.239 52.064C122.607 52.64 122.791 53.368 122.791 54.248C122.791 55.144 122.543 55.976 122.047 56.744C121.567 57.496 120.823 58.104 119.815 58.568C118.807 59.016 117.535 59.24 115.999 59.24ZM131.477 59.168C130.133 59.168 128.933 58.888 127.877 58.328C126.837 57.752 126.021 56.968 125.429 55.976C124.837 54.984 124.541 53.856 124.541 52.592C124.541 51.312 124.837 50.184 125.429 49.208C126.021 48.216 126.837 47.44 127.877 46.88C128.933 46.32 130.133 46.04 131.477 46.04C132.725 46.04 133.821 46.296 134.765 46.808C135.725 47.304 136.453 48.04 136.949 49.016L134.645 50.36C134.261 49.752 133.789 49.304 133.229 49.016C132.685 48.728 132.093 48.584 131.453 48.584C130.717 48.584 130.053 48.744 129.461 49.064C128.869 49.384 128.405 49.848 128.069 50.456C127.733 51.048 127.565 51.76 127.565 52.592C127.565 53.424 127.733 54.144 128.069 54.752C128.405 55.344 128.869 55.8 129.461 56.12C130.053 56.44 130.717 56.6 131.453 56.6C132.093 56.6 132.685 56.456 133.229 56.168C133.789 55.88 134.261 55.432 134.645 54.824L136.949 56.168C136.453 57.128 135.725 57.872 134.765 58.4C133.821 58.912 132.725 59.168 131.477 59.168ZM145.115 59.168C143.803 59.168 142.635 58.888 141.611 58.328C140.587 57.752 139.779 56.968 139.187 55.976C138.595 54.984 138.299 53.856 138.299 52.592C138.299 51.312 138.595 50.184 139.187 49.208C139.779 48.216 140.587 47.44 141.611 46.88C142.635 46.32 143.803 46.04 145.115 46.04C146.443 46.04 147.619 46.32 148.643 46.88C149.683 47.44 150.491 48.208 151.067 49.184C151.659 50.16 151.955 51.296 151.955 52.592C151.955 53.856 151.659 54.984 151.067 55.976C150.491 56.968 149.683 57.752 148.643 58.328C147.619 58.888 146.443 59.168 145.115 59.168ZM145.115 56.6C145.851 56.6 146.507 56.44 147.083 56.12C147.659 55.8 148.107 55.336 148.427 54.728C148.763 54.12 148.931 53.408 148.931 52.592C148.931 51.76 148.763 51.048 148.427 50.456C148.107 49.848 147.659 49.384 147.083 49.064C146.507 48.744 145.859 48.584 145.139 48.584C144.403 48.584 143.747 48.744 143.171 49.064C142.611 49.384 142.163 49.848 141.827 50.456C141.491 51.048 141.323 51.76 141.323 52.592C141.323 53.408 141.491 54.12 141.827 54.728C142.163 55.336 142.611 55.8 143.171 56.12C143.747 56.44 144.395 56.6 145.115 56.6ZM161.927 59.168C160.887 59.168 159.935 58.928 159.071 58.448C158.223 57.968 157.543 57.248 157.031 56.288C156.535 55.312 156.287 54.08 156.287 52.592C156.287 51.088 156.527 49.856 157.007 48.896C157.503 47.936 158.175 47.224 159.023 46.76C159.871 46.28 160.839 46.04 161.927 46.04C163.191 46.04 164.303 46.312 165.263 46.856C166.239 47.4 167.007 48.16 167.567 49.136C168.143 50.112 168.431 51.264 168.431 52.592C168.431 53.92 168.143 55.08 167.567 56.072C167.007 57.048 166.239 57.808 165.263 58.352C164.303 58.896 163.191 59.168 161.927 59.168ZM154.823 63.656V46.184H157.679V49.208L157.583 52.616L157.823 56.024V63.656H154.823ZM161.591 56.6C162.311 56.6 162.951 56.44 163.511 56.12C164.087 55.8 164.543 55.336 164.879 54.728C165.215 54.12 165.383 53.408 165.383 52.592C165.383 51.76 165.215 51.048 164.879 50.456C164.543 49.848 164.087 49.384 163.511 49.064C162.951 48.744 162.311 48.584 161.591 48.584C160.871 48.584 160.223 48.744 159.647 49.064C159.071 49.384 158.615 49.848 158.279 50.456C157.943 51.048 157.775 51.76 157.775 52.592C157.775 53.408 157.943 54.12 158.279 54.728C158.615 55.336 159.071 55.8 159.647 56.12C160.223 56.44 160.871 56.6 161.591 56.6ZM177.301 59.168C175.877 59.168 174.629 58.888 173.557 58.328C172.501 57.752 171.677 56.968 171.085 55.976C170.509 54.984 170.221 53.856 170.221 52.592C170.221 51.312 170.501 50.184 171.061 49.208C171.637 48.216 172.421 47.44 173.413 46.88C174.421 46.32 175.565 46.04 176.845 46.04C178.093 46.04 179.205 46.312 180.181 46.856C181.157 47.4 181.925 48.168 182.485 49.16C183.045 50.152 183.325 51.32 183.325 52.664C183.325 52.792 183.317 52.936 183.301 53.096C183.301 53.256 183.293 53.408 183.277 53.552H172.597V51.56H181.693L180.517 52.184C180.533 51.448 180.381 50.8 180.061 50.24C179.741 49.68 179.301 49.24 178.741 48.92C178.197 48.6 177.565 48.44 176.845 48.44C176.109 48.44 175.461 48.6 174.901 48.92C174.357 49.24 173.925 49.688 173.605 50.264C173.301 50.824 173.149 51.488 173.149 52.256V52.736C173.149 53.504 173.325 54.184 173.677 54.776C174.029 55.368 174.525 55.824 175.165 56.144C175.805 56.464 176.541 56.624 177.373 56.624C178.093 56.624 178.741 56.512 179.317 56.288C179.893 56.064 180.405 55.712 180.853 55.232L182.461 57.08C181.885 57.752 181.157 58.272 180.277 58.64C179.413 58.992 178.421 59.168 177.301 59.168ZM200.903 59.24C199.623 59.24 198.431 59.032 197.327 58.616C196.239 58.184 195.287 57.584 194.471 56.816C193.671 56.032 193.047 55.112 192.599 54.056C192.151 53 191.927 51.848 191.927 50.6C191.927 49.352 192.151 48.2 192.599 47.144C193.047 46.088 193.679 45.176 194.495 44.408C195.311 43.624 196.263 43.024 197.351 42.608C198.439 42.176 199.631 41.96 200.927 41.96C202.303 41.96 203.559 42.2 204.695 42.68C205.831 43.144 206.791 43.84 207.575 44.768L205.559 46.664C204.951 46.008 204.271 45.52 203.519 45.2C202.767 44.864 201.951 44.696 201.071 44.696C200.191 44.696 199.383 44.84 198.647 45.128C197.927 45.416 197.295 45.824 196.751 46.352C196.223 46.88 195.807 47.504 195.503 48.224C195.215 48.944 195.071 49.736 195.071 50.6C195.071 51.464 195.215 52.256 195.503 52.976C195.807 53.696 196.223 54.32 196.751 54.848C197.295 55.376 197.927 55.784 198.647 56.072C199.383 56.36 200.191 56.504 201.071 56.504C201.951 56.504 202.767 56.344 203.519 56.024C204.271 55.688 204.951 55.184 205.559 54.512L207.575 56.432C206.791 57.344 205.831 58.04 204.695 58.52C203.559 59 202.295 59.24 200.903 59.24ZM210.277 59V46.184H213.133V49.712L212.797 48.68C213.181 47.816 213.781 47.16 214.597 46.712C215.429 46.264 216.461 46.04 217.693 46.04V48.896C217.565 48.864 217.445 48.848 217.333 48.848C217.221 48.832 217.109 48.824 216.997 48.824C215.861 48.824 214.957 49.16 214.285 49.832C213.613 50.488 213.277 51.472 213.277 52.784V59H210.277ZM226.144 59.168C224.72 59.168 223.472 58.888 222.4 58.328C221.344 57.752 220.52 56.968 219.928 55.976C219.352 54.984 219.064 53.856 219.064 52.592C219.064 51.312 219.344 50.184 219.904 49.208C220.48 48.216 221.264 47.44 222.256 46.88C223.264 46.32 224.408 46.04 225.688 46.04C226.936 46.04 228.048 46.312 229.024 46.856C230 47.4 230.768 48.168 231.328 49.16C231.888 50.152 232.168 51.32 232.168 52.664C232.168 52.792 232.16 52.936 232.144 53.096C232.144 53.256 232.136 53.408 232.12 53.552H221.44V51.56H230.536L229.36 52.184C229.376 51.448 229.224 50.8 228.904 50.24C228.584 49.68 228.144 49.24 227.584 48.92C227.04 48.6 226.408 48.44 225.688 48.44C224.952 48.44 224.304 48.6 223.744 48.92C223.2 49.24 222.768 49.688 222.448 50.264C222.144 50.824 221.992 51.488 221.992 52.256V52.736C221.992 53.504 222.168 54.184 222.52 54.776C222.872 55.368 223.368 55.824 224.008 56.144C224.648 56.464 225.384 56.624 226.216 56.624C226.936 56.624 227.584 56.512 228.16 56.288C228.736 56.064 229.248 55.712 229.696 55.232L231.304 57.08C230.728 57.752 230 58.272 229.12 58.64C228.256 58.992 227.264 59.168 226.144 59.168ZM241.074 59.168C239.65 59.168 238.402 58.888 237.33 58.328C236.274 57.752 235.45 56.968 234.858 55.976C234.282 54.984 233.994 53.856 233.994 52.592C233.994 51.312 234.274 50.184 234.834 49.208C235.41 48.216 236.194 47.44 237.186 46.88C238.194 46.32 239.338 46.04 240.618 46.04C241.866 46.04 242.978 46.312 243.954 46.856C244.93 47.4 245.698 48.168 246.258 49.16C246.818 50.152 247.098 51.32 247.098 52.664C247.098 52.792 247.09 52.936 247.074 53.096C247.074 53.256 247.066 53.408 247.05 53.552H236.37V51.56H245.466L244.29 52.184C244.306 51.448 244.154 50.8 243.834 50.24C243.514 49.68 243.074 49.24 242.514 48.92C241.97 48.6 241.338 48.44 240.618 48.44C239.882 48.44 239.234 48.6 238.674 48.92C238.13 49.24 237.698 49.688 237.378 50.264C237.074 50.824 236.922 51.488 236.922 52.256V52.736C236.922 53.504 237.098 54.184 237.45 54.776C237.802 55.368 238.298 55.824 238.938 56.144C239.578 56.464 240.314 56.624 241.146 56.624C241.866 56.624 242.514 56.512 243.09 56.288C243.666 56.064 244.178 55.712 244.626 55.232L246.234 57.08C245.658 57.752 244.93 58.272 244.05 58.64C243.186 58.992 242.194 59.168 241.074 59.168ZM257.084 59.168C256.044 59.168 255.092 58.928 254.228 58.448C253.38 57.968 252.7 57.248 252.188 56.288C251.692 55.312 251.444 54.08 251.444 52.592C251.444 51.088 251.684 49.856 252.164 48.896C252.66 47.936 253.332 47.224 254.18 46.76C255.028 46.28 255.996 46.04 257.084 46.04C258.348 46.04 259.46 46.312 260.42 46.856C261.396 47.4 262.164 48.16 262.724 49.136C263.3 50.112 263.588 51.264 263.588 52.592C263.588 53.92 263.3 55.08 262.724 56.072C262.164 57.048 261.396 57.808 260.42 58.352C259.46 58.896 258.348 59.168 257.084 59.168ZM249.98 63.656V46.184H252.836V49.208L252.74 52.616L252.98 56.024V63.656H249.98ZM256.748 56.6C257.468 56.6 258.108 56.44 258.668 56.12C259.244 55.8 259.7 55.336 260.036 54.728C260.372 54.12 260.54 53.408 260.54 52.592C260.54 51.76 260.372 51.048 260.036 50.456C259.7 49.848 259.244 49.384 258.668 49.064C258.108 48.744 257.468 48.584 256.748 48.584C256.028 48.584 255.38 48.744 254.804 49.064C254.228 49.384 253.772 49.848 253.436 50.456C253.1 51.048 252.932 51.76 252.932 52.592C252.932 53.408 253.1 54.12 253.436 54.728C253.772 55.336 254.228 55.8 254.804 56.12C255.38 56.44 256.028 56.6 256.748 56.6ZM105.283 88V71.2H107.851L115.195 83.464H113.851L121.075 71.2H123.643L123.667 88H120.715L120.691 75.832H121.315L115.171 86.08H113.779L107.539 75.832H108.259V88H105.283ZM135.813 88V85.408L135.645 84.856V80.32C135.645 79.44 135.381 78.76 134.853 78.28C134.325 77.784 133.525 77.536 132.453 77.536C131.733 77.536 131.021 77.648 130.317 77.872C129.629 78.096 129.045 78.408 128.565 78.808L127.389 76.624C128.077 76.096 128.893 75.704 129.837 75.448C130.797 75.176 131.789 75.04 132.813 75.04C134.669 75.04 136.101 75.488 137.109 76.384C138.133 77.264 138.645 78.632 138.645 80.488V88H135.813ZM131.781 88.168C130.821 88.168 129.981 88.008 129.261 87.688C128.541 87.352 127.981 86.896 127.581 86.32C127.197 85.728 127.005 85.064 127.005 84.328C127.005 83.608 127.173 82.96 127.509 82.384C127.861 81.808 128.429 81.352 129.213 81.016C129.997 80.68 131.037 80.512 132.333 80.512H136.053V82.504H132.549C131.525 82.504 130.837 82.672 130.485 83.008C130.133 83.328 129.957 83.728 129.957 84.208C129.957 84.752 130.173 85.184 130.605 85.504C131.037 85.824 131.637 85.984 132.405 85.984C133.141 85.984 133.797 85.816 134.373 85.48C134.965 85.144 135.389 84.648 135.645 83.992L136.149 85.792C135.861 86.544 135.341 87.128 134.589 87.544C133.853 87.96 132.917 88.168 131.781 88.168ZM149.767 75.04C150.791 75.04 151.703 75.24 152.503 75.64C153.319 76.04 153.959 76.656 154.423 77.488C154.887 78.304 155.119 79.36 155.119 80.656V88H152.119V81.04C152.119 79.904 151.847 79.056 151.303 78.496C150.775 77.936 150.031 77.656 149.071 77.656C148.367 77.656 147.743 77.8 147.199 78.088C146.655 78.376 146.231 78.808 145.927 79.384C145.639 79.944 145.495 80.656 145.495 81.52V88H142.495V75.184H145.351V78.64L144.847 77.584C145.295 76.768 145.943 76.144 146.791 75.712C147.655 75.264 148.647 75.04 149.767 75.04ZM166.821 88V85.408L166.653 84.856V80.32C166.653 79.44 166.389 78.76 165.861 78.28C165.333 77.784 164.533 77.536 163.461 77.536C162.741 77.536 162.029 77.648 161.325 77.872C160.637 78.096 160.053 78.408 159.573 78.808L158.397 76.624C159.085 76.096 159.901 75.704 160.845 75.448C161.805 75.176 162.797 75.04 163.821 75.04C165.677 75.04 167.109 75.488 168.117 76.384C169.141 77.264 169.653 78.632 169.653 80.488V88H166.821ZM162.789 88.168C161.829 88.168 160.989 88.008 160.269 87.688C159.549 87.352 158.989 86.896 158.589 86.32C158.205 85.728 158.013 85.064 158.013 84.328C158.013 83.608 158.181 82.96 158.517 82.384C158.869 81.808 159.437 81.352 160.221 81.016C161.005 80.68 162.045 80.512 163.341 80.512H167.061V82.504H163.557C162.533 82.504 161.845 82.672 161.493 83.008C161.141 83.328 160.965 83.728 160.965 84.208C160.965 84.752 161.181 85.184 161.613 85.504C162.045 85.824 162.645 85.984 163.413 85.984C164.149 85.984 164.805 85.816 165.381 85.48C165.973 85.144 166.397 84.648 166.653 83.992L167.157 85.792C166.869 86.544 166.349 87.128 165.597 87.544C164.861 87.96 163.925 88.168 162.789 88.168ZM179.335 92.824C178.151 92.824 176.991 92.664 175.855 92.344C174.735 92.04 173.815 91.592 173.095 91L174.439 88.744C174.999 89.208 175.703 89.576 176.551 89.848C177.415 90.136 178.287 90.28 179.167 90.28C180.575 90.28 181.607 89.952 182.263 89.296C182.919 88.656 183.247 87.688 183.247 86.392V84.112L183.487 81.208L183.391 78.304V75.184H186.247V86.056C186.247 88.376 185.655 90.08 184.471 91.168C183.287 92.272 181.575 92.824 179.335 92.824ZM178.951 87.424C177.735 87.424 176.631 87.168 175.639 86.656C174.663 86.128 173.887 85.4 173.311 84.472C172.751 83.544 172.471 82.456 172.471 81.208C172.471 79.976 172.751 78.896 173.311 77.968C173.887 77.04 174.663 76.32 175.639 75.808C176.631 75.296 177.735 75.04 178.951 75.04C180.039 75.04 181.015 75.256 181.879 75.688C182.743 76.12 183.431 76.792 183.943 77.704C184.471 78.616 184.735 79.784 184.735 81.208C184.735 82.632 184.471 83.808 183.943 84.736C183.431 85.648 182.743 86.328 181.879 86.776C181.015 87.208 180.039 87.424 178.951 87.424ZM179.407 84.88C180.159 84.88 180.831 84.728 181.423 84.424C182.015 84.104 182.471 83.672 182.791 83.128C183.127 82.568 183.295 81.928 183.295 81.208C183.295 80.488 183.127 79.856 182.791 79.312C182.471 78.752 182.015 78.328 181.423 78.04C180.831 77.736 180.159 77.584 179.407 77.584C178.655 77.584 177.975 77.736 177.367 78.04C176.775 78.328 176.311 78.752 175.975 79.312C175.655 79.856 175.495 80.488 175.495 81.208C175.495 81.928 175.655 82.568 175.975 83.128C176.311 83.672 176.775 84.104 177.367 84.424C177.975 84.728 178.655 84.88 179.407 84.88ZM196.215 88.168C194.791 88.168 193.543 87.888 192.471 87.328C191.415 86.752 190.591 85.968 189.999 84.976C189.423 83.984 189.135 82.856 189.135 81.592C189.135 80.312 189.415 79.184 189.975 78.208C190.551 77.216 191.335 76.44 192.327 75.88C193.335 75.32 194.479 75.04 195.759 75.04C197.007 75.04 198.119 75.312 199.095 75.856C200.071 76.4 200.839 77.168 201.399 78.16C201.959 79.152 202.239 80.32 202.239 81.664C202.239 81.792 202.231 81.936 202.215 82.096C202.215 82.256 202.207 82.408 202.191 82.552H191.511V80.56H200.607L199.431 81.184C199.447 80.448 199.295 79.8 198.975 79.24C198.655 78.68 198.215 78.24 197.655 77.92C197.111 77.6 196.479 77.44 195.759 77.44C195.023 77.44 194.375 77.6 193.815 77.92C193.271 78.24 192.839 78.688 192.519 79.264C192.215 79.824 192.063 80.488 192.063 81.256V81.736C192.063 82.504 192.239 83.184 192.591 83.776C192.943 84.368 193.439 84.824 194.079 85.144C194.719 85.464 195.455 85.624 196.287 85.624C197.007 85.624 197.655 85.512 198.231 85.288C198.807 85.064 199.319 84.712 199.767 84.232L201.375 86.08C200.799 86.752 200.071 87.272 199.191 87.64C198.327 87.992 197.335 88.168 196.215 88.168ZM221.296 75.04C222.32 75.04 223.224 75.24 224.008 75.64C224.808 76.04 225.432 76.656 225.88 77.488C226.328 78.304 226.552 79.36 226.552 80.656V88H223.552V81.04C223.552 79.904 223.304 79.056 222.808 78.496C222.312 77.936 221.6 77.656 220.672 77.656C220.016 77.656 219.432 77.8 218.92 78.088C218.424 78.376 218.032 78.8 217.744 79.36C217.472 79.92 217.336 80.632 217.336 81.496V88H214.336V81.04C214.336 79.904 214.088 79.056 213.592 78.496C213.096 77.936 212.384 77.656 211.456 77.656C210.8 77.656 210.216 77.8 209.704 78.088C209.208 78.376 208.816 78.8 208.528 79.36C208.256 79.92 208.12 80.632 208.12 81.496V88H205.12V75.184H207.976V78.592L207.472 77.584C207.904 76.752 208.528 76.12 209.344 75.688C210.176 75.256 211.12 75.04 212.176 75.04C213.376 75.04 214.416 75.336 215.296 75.928C216.192 76.52 216.784 77.416 217.072 78.616L215.896 78.208C216.312 77.248 217 76.48 217.96 75.904C218.92 75.328 220.032 75.04 221.296 75.04ZM236.433 88.168C235.009 88.168 233.761 87.888 232.689 87.328C231.633 86.752 230.809 85.968 230.217 84.976C229.641 83.984 229.353 82.856 229.353 81.592C229.353 80.312 229.633 79.184 230.193 78.208C230.769 77.216 231.553 76.44 232.545 75.88C233.553 75.32 234.697 75.04 235.977 75.04C237.225 75.04 238.337 75.312 239.313 75.856C240.289 76.4 241.057 77.168 241.617 78.16C242.177 79.152 242.457 80.32 242.457 81.664C242.457 81.792 242.449 81.936 242.433 82.096C242.433 82.256 242.425 82.408 242.409 82.552H231.729V80.56H240.825L239.649 81.184C239.665 80.448 239.513 79.8 239.193 79.24C238.873 78.68 238.433 78.24 237.873 77.92C237.329 77.6 236.697 77.44 235.977 77.44C235.241 77.44 234.593 77.6 234.033 77.92C233.489 78.24 233.057 78.688 232.737 79.264C232.433 79.824 232.281 80.488 232.281 81.256V81.736C232.281 82.504 232.457 83.184 232.809 83.776C233.161 84.368 233.657 84.824 234.297 85.144C234.937 85.464 235.673 85.624 236.505 85.624C237.225 85.624 237.873 85.512 238.449 85.288C239.025 85.064 239.537 84.712 239.985 84.232L241.593 86.08C241.017 86.752 240.289 87.272 239.409 87.64C238.545 87.992 237.553 88.168 236.433 88.168ZM252.611 75.04C253.635 75.04 254.547 75.24 255.347 75.64C256.163 76.04 256.803 76.656 257.267 77.488C257.731 78.304 257.963 79.36 257.963 80.656V88H254.963V81.04C254.963 79.904 254.691 79.056 254.147 78.496C253.619 77.936 252.875 77.656 251.915 77.656C251.211 77.656 250.587 77.8 250.043 78.088C249.499 78.376 249.075 78.808 248.771 79.384C248.483 79.944 248.339 80.656 248.339 81.52V88H245.339V75.184H248.195V78.64L247.691 77.584C248.139 76.768 248.787 76.144 249.635 75.712C250.499 75.264 251.491 75.04 252.611 75.04ZM266.593 88.168C265.185 88.168 264.097 87.808 263.329 87.088C262.561 86.352 262.177 85.272 262.177 83.848V72.352H265.177V83.776C265.177 84.384 265.329 84.856 265.633 85.192C265.953 85.528 266.393 85.696 266.953 85.696C267.625 85.696 268.185 85.52 268.633 85.168L269.473 87.304C269.121 87.592 268.689 87.808 268.177 87.952C267.665 88.096 267.137 88.168 266.593 88.168ZM260.065 77.68V75.28H268.609V77.68H260.065Z" fill="white"/>
<rect x="32.5" y="132.5" width="231" height="167" rx="11.5" stroke="#5C5C5C"/>
<path d="M46 225.491C53.2857 232.781 66.0357 251.004 80.6071 252.826C95.1786 254.648 109.75 241.892 122.5 227.314C137.071 212.735 151.643 194.512 166.214 192.69C178.964 190.868 193.536 203.624 208.107 199.979C222.679 194.512 235.429 174.467 250 169" stroke="#5B5AF7" stroke-width="2" stroke-linecap="round"/>
<circle cx="250.5" cy="168.5" r="2.5" fill="white" stroke="#5B5AF7" stroke-width="2"/>
<rect opacity="0.5" x="42" y="144" width="133" height="9" rx="4.5" fill="url(#paint0_linear_58_1260)"/>
<rect x="108" y="244" width="232" height="168" rx="12" fill="#3E3E3E"/>
<rect x="121" y="279" width="205" height="5" rx="2.5" fill="#CBD5E0"/>
<rect x="121" y="279" width="163.556" height="5" rx="2.5" fill="#EC57A8"/>
<rect x="121" y="279" width="140.984" height="5" rx="2.5" fill="#5B5AF7"/>
<rect x="121" y="302" width="180" height="5" rx="2.5" fill="#CBD5E0"/>
<rect x="121" y="302" width="143.61" height="5" rx="2.5" fill="#EC57A8"/>
<rect x="121" y="302" width="123.791" height="5" rx="2.5" fill="#5B5AF7"/>
<rect x="121" y="325" width="115" height="5" rx="2.5" fill="#CBD5E0"/>
<rect x="121" y="325" width="91.7509" height="5" rx="2.5" fill="#EC57A8"/>
<rect x="121" y="325" width="79.0884" height="5" rx="2.5" fill="#5B5AF7"/>
<rect x="121" y="348" width="189" height="5" rx="2.5" fill="#CBD5E0"/>
<rect x="121" y="348" width="150.791" height="5" rx="2.5" fill="#EC57A8"/>
<rect x="121" y="348" width="129.98" height="5" rx="2.5" fill="#5B5AF7"/>
<rect x="121" y="371" width="85" height="5" rx="2.5" fill="#CBD5E0"/>
<rect x="121" y="371" width="67.8159" height="5" rx="2.5" fill="#EC57A8"/>
<rect x="121" y="371" width="58.4567" height="5" rx="2.5" fill="#5B5AF7"/>
<rect x="121" y="394" width="136" height="5" rx="2.5" fill="#CBD5E0"/>
<rect x="121" y="394" width="108.505" height="5" rx="2.5" fill="#EC57A8"/>
<rect x="121" y="394" width="93.5307" height="5" rx="2.5" fill="#5B5AF7"/>
<rect opacity="0.5" x="121" y="256" width="133" height="9" rx="4.5" fill="url(#paint1_linear_58_1260)"/>
<defs>
<linearGradient id="paint0_linear_58_1260" x1="42" y1="144" x2="166.596" y2="158.124" gradientUnits="userSpaceOnUse">
<stop stop-color="#D9D9D9"/>
<stop offset="1" stop-color="#737373"/>
</linearGradient>
<linearGradient id="paint1_linear_58_1260" x1="121" y1="256" x2="245.596" y2="270.124" gradientUnits="userSpaceOnUse">
<stop stop-color="#D9D9D9"/>
<stop offset="1" stop-color="#737373"/>
</linearGradient>
</defs>
</svg>
